<svg width="24" height="24" viewBox="0 0 24 24" fill="none" xmlns="http://www.w3.org/2000/svg">
<path d="M9.75369 4C9.75369 3.17157 9.08212 2.5 8.25369 2.5C7.42526 2.5 6.75369 3.17157 6.75369 4H9.75369ZM6.75369 6.81583C6.75369 7.64426 7.42526 8.31583 8.25369 8.31583C9.08212 8.31583 9.75369 7.64426 9.75369 6.81583H6.75369ZM14.222 6.81583C14.222 7.64426 14.8936 8.31583 15.722 8.31583C16.5504 8.31583 17.222 7.64426 17.222 6.81583H14.222ZM17.222 4.00003C17.222 3.1716 16.5504 2.50003 15.722 2.50003C14.8936 2.50003 14.222 3.1716 14.222 4.00003H17.222ZM4.51954 17.1994L6.01954 17.1994V17.1994L4.51954 17.1994ZM4.51954 7.86398L6.01954 7.86398V7.86398H4.51954ZM6.75369 4V6.81583H9.75369V4H6.75369ZM15.722 6.56336H16.6556V3.56336H15.722V6.56336ZM14.222 5.06336V6.81583H17.222V5.06336H14.222ZM17.222 5.06336V4.00003H14.222V5.06336H17.222ZM3.01954 17.1994C3.01953 19.5745 4.94498 21.5 7.32015 21.5V18.5C6.60184 18.5 6.01953 17.9177 6.01954 17.1994L3.01954 17.1994ZM17.9562 17.1994C17.9562 17.9177 17.3739 18.5 16.6556 18.5V21.5C19.0307 21.5 20.9562 19.5745 20.9562 17.1994H17.9562ZM20.9562 7.86398C20.9562 5.48882 19.0307 3.56336 16.6556 3.56336V6.56336C17.3739 6.56336 17.9562 7.14567 17.9562 7.86398H20.9562ZM6.01954 7.86398C6.01954 7.14567 6.60185 6.56336 7.32016 6.56336V3.56336C4.945 3.56336 3.01954 5.48882 3.01954 7.86398H6.01954ZM4.51953 11.3331H19.4562V8.33312H4.51953V11.3331ZM17.9562 7.86398V17.1994H20.9562V7.86398H17.9562ZM6.01954 17.1994L6.01954 7.86398L3.01954 7.86398L3.01954 17.1994L6.01954 17.1994ZM7.32016 6.56336H15.722V3.56336H7.32016V6.56336ZM16.6556 18.5H7.32015V21.5H16.6556V18.5Z" fill="#418663"/>
</svg>
