<svg width="12" height="12" viewBox="0 0 12 12" fill="none" xmlns="http://www.w3.org/2000/svg">
<path fill-rule="evenodd" clip-rule="evenodd" d="M4.46772 0.788537C5.21868 -0.262846 6.78128 -0.262846 7.53229 0.788537L7.65187 0.95592C7.78399 1.14096 8.00594 1.24004 8.2319 1.21493L8.7648 1.15572C9.96416 1.02246 10.9775 2.03585 10.8443 3.23518L10.7851 3.76809C10.76 3.99408 10.859 4.21599 11.0441 4.34816L11.2115 4.46772C12.2628 5.21868 12.2628 6.78128 11.2115 7.53229L11.0441 7.65187C10.859 7.78399 10.76 8.00594 10.7851 8.2319L10.8443 8.7648C10.9775 9.96416 9.96416 10.9775 8.7648 10.8443L8.2319 10.7851C8.00594 10.76 7.78399 10.859 7.65187 11.0441L7.53229 11.2115C6.78128 12.2628 5.21874 12.2628 4.46772 11.2115L4.34816 11.0441C4.21599 10.859 3.99408 10.76 3.76808 10.7851L3.23518 10.8443C2.03585 10.9775 1.02246 9.96416 1.15572 8.7648L1.21493 8.2319C1.24004 8.00594 1.14096 7.78399 0.95592 7.65187L0.788537 7.53229C-0.262846 6.78128 -0.262846 5.21874 0.788537 4.46772L0.95592 4.34816C1.14096 4.21599 1.24004 3.99408 1.21493 3.76808L1.15572 3.23518C1.02246 2.03585 2.03585 1.02246 3.23518 1.15572L3.76809 1.21493C3.99408 1.24004 4.21599 1.14096 4.34816 0.95592L4.46772 0.788537ZM8.32687 4.30082C8.57198 4.54595 8.57198 4.94338 8.32687 5.18849L5.92984 7.58552C5.62196 7.89346 5.12271 7.89346 4.81483 7.58552L3.67314 6.44384C3.42802 6.19873 3.42802 5.80129 3.67314 5.55618C3.91827 5.31107 4.31569 5.31107 4.56082 5.55618L5.37233 6.3677L7.43921 4.30082C7.68432 4.0557 8.08176 4.0557 8.32687 4.30082Z" fill="#418663"/>
</svg>
