<svg width="20" height="20" viewBox="0 0 20 20" fill="none" xmlns="http://www.w3.org/2000/svg">
<path d="M10.4167 16.6666C14.0986 16.6666 17.0833 13.6818 17.0833 9.99992C17.0833 6.31802 14.0986 3.33325 10.4167 3.33325C6.73477 3.33325 3.75 6.31802 3.75 9.99992C3.75 13.6818 6.73477 16.6666 10.4167 16.6666Z" stroke="#131214" stroke-opacity="0.5" stroke-width="1.5" stroke-linecap="round" stroke-linejoin="round"/>
<path d="M12.0267 7.3214C12.6659 7.207 13.1959 7.73704 13.0815 8.37621C12.9064 9.35454 12.5455 10.6841 11.823 11.4066C11.1005 12.1291 9.77096 12.49 8.79263 12.6651C8.15347 12.7795 7.62343 12.2495 7.73783 11.6103C7.91293 10.632 8.27387 9.30239 8.99634 8.57992C9.71881 7.85745 11.0484 7.49651 12.0267 7.3214Z" stroke="#131214" stroke-opacity="0.5" stroke-width="1.5" stroke-linecap="round" stroke-linejoin="round"/>
</svg>
