<svg width="9" height="9" viewBox="0 0 9 9" fill="none" xmlns="http://www.w3.org/2000/svg">
<path d="M4.80434 1.00462L4.52404 0.889282C3.46418 0.453144 2.30387 0.343554 1.18451 0.573863L0.0175781 0.813954V7.79067L1.18451 7.5506C2.30387 7.3203 3.46418 7.4299 4.52404 7.86602C5.67262 8.33862 6.93668 8.42688 8.1368 8.11823L8.20469 8.10079C8.60217 7.99858 8.79064 7.53037 8.57986 7.16897L7.52148 5.35425C7.28988 4.95718 7.17405 4.75864 7.14658 4.54268C7.13519 4.4526 7.13519 4.36136 7.14658 4.27127C7.17405 4.05531 7.28988 3.85677 7.52148 3.45968L8.38854 1.97301C8.61546 1.58391 8.27183 1.10678 7.84389 1.21684C6.83421 1.47651 5.77068 1.40226 4.80434 1.00462Z" fill="#418663"/>
</svg>
