<svg width="10" height="10" viewBox="0 0 14 11" fill="none" xmlns="http://www.w3.org/2000/svg">
<path d="M12.6386 1.02812C12.3128 0.702179 11.9259 0.443616 11.5002 0.267207C11.0744 0.0907981 10.6181 0 10.1573 0C9.69642 0 9.24008 0.0907981 8.81433 0.267207C8.38859 0.443616 8.00177 0.702179 7.67598 1.02812L7.25682 1.44728C7.11489 1.58921 6.88479 1.58921 6.74286 1.44728L6.3237 1.02812C5.66563 0.370046 4.77308 0.000341105 3.84242 0.000341112C2.91175 0.000341119 2.01921 0.370046 1.36113 1.02812C0.703048 1.6862 0.333344 2.57875 0.333344 3.50941C0.333343 4.44008 0.703048 5.33262 1.36113 5.9907L5.45798 10.0876C6.30953 10.9391 7.69015 10.9391 8.5417 10.0876L12.6386 5.9907C12.9645 5.66491 13.2231 5.27809 13.3995 4.85234C13.5759 4.42659 13.6667 3.97026 13.6667 3.50941C13.6667 3.04856 13.5759 2.59223 13.3995 2.16648C13.2231 1.74074 12.9645 1.35392 12.6386 1.02812Z" fill="#FF0000"/>
</svg>
