<svg width="14" height="11" viewBox="0 0 14 11" fill="none" xmlns="http://www.w3.org/2000/svg">
<path d="M8.02953 1.38168L8.02961 1.3816C8.30897 1.1021 8.64066 0.880391 9.00573 0.729124C9.3708 0.577857 9.7621 0.5 10.1573 0.5C10.5524 0.5 10.9437 0.577857 11.3088 0.729124C11.6739 0.880391 12.0056 1.1021 12.2849 1.3816L12.2851 1.38176C12.5646 1.66112 12.7863 1.99281 12.9376 2.35788C13.0888 2.72295 13.1667 3.11425 13.1667 3.50941C13.1667 3.90458 13.0888 4.29588 12.9376 4.66095C12.7863 5.02602 12.5646 5.35771 12.2851 5.63707L12.285 5.63715L8.18814 9.734C7.53186 10.3903 6.46782 10.3903 5.81153 9.734L1.71468 5.63715C1.15037 5.07284 0.833344 4.30747 0.833344 3.50941C0.833344 2.71136 1.15037 1.94599 1.71468 1.38168C2.27899 0.817368 3.04436 0.500341 3.84242 0.500341C4.64047 0.500341 5.40584 0.817367 5.97015 1.38168L6.38931 1.80084C6.7265 2.13802 7.27318 2.13802 7.61037 1.80084L8.02953 1.38168Z" fill="white" stroke="#DEDEDD" stroke-linecap="round" stroke-linejoin="round"/>
</svg>
