<?xml version="1.0" encoding="utf-8"?>
<!-- Generator: Adobe Illustrator 24.1.1, SVG Export Plug-In . SVG Version: 6.00 Build 0)  -->
<svg version="1.1" id="Layer_1" xmlns="http://www.w3.org/2000/svg" xmlns:xlink="http://www.w3.org/1999/xlink" x="0px" y="0px"
	 viewBox="0 0 512 512" style="enable-background:new 0 0 512 512;" xml:space="preserve">
<g>
	<path d="M455.1,0c15.9,0,29.4,5.5,40.4,16.5c11,11,16.5,24.5,16.5,40.4v398.2c0,15.2-5.5,28.4-16.5,39.8
		c-11,11.4-24.5,17.1-40.4,17.1h-256c-15.2,0-28.3-5.7-39.3-17.1c-11-11.4-16.5-24.7-16.5-39.8v-56.9h55.8v56.9h256V56.9h-256v85.3
		h-55.8V56.9c0-15.9,5.5-29.4,16.5-40.4c11-11,24.1-16.5,39.3-16.5H455.1 M256,381.2v-68.3H0v-85.3h256v-68.3l113.8,110.4L256,381.2
		"/>
</g>
</svg>
