<svg width="50" height="50" viewBox="0 0 50 50" fill="none" xmlns="http://www.w3.org/2000/svg">
<path d="M42.2588 13.2451V14.3651L43.399 14.4701L43.4777 13.5951L42.2588 13.2451Z" fill="white"/>
<path d="M36.0865 20.4559L36.1259 18.9859L36.1649 14.0858L35.6934 14.2608L35.8113 21.1909L36.0865 20.4559Z" fill="white"/>
<path d="M19.7398 7.70658C20.4198 8.01143 20.946 8.52103 21.432 9.03279C21.945 9.56926 22.4932 10.0751 23.0561 10.5699C23.3141 10.7978 23.5555 11.0328 23.7902 11.2797C24.022 11.5098 24.2719 11.724 24.5225 11.9379C24.6185 12.0212 24.7106 12.1081 24.802 12.1954C24.802 12.2416 24.802 12.2878 24.802 12.3354C24.8494 12.3539 24.8967 12.3724 24.9455 12.3915C25.126 12.4801 25.2098 12.5565 25.3377 12.6986C25.6223 12.9995 25.9321 13.2721 26.247 13.5473C26.6575 13.9081 27.0358 14.2734 27.3934 14.6767C27.6162 14.9242 27.8553 15.1573 28.0953 15.3917C28.247 15.5407 28.395 15.6918 28.5422 15.8443C28.8265 16.1353 29.1318 16.4062 29.4416 16.6755C29.1798 16.7532 29.0775 16.7205 28.8216 16.652C26.8244 16.1309 24.8705 16.4679 23.072 17.3056C22.9552 17.3749 22.9552 17.3749 22.8361 17.4456C22.5486 17.4421 22.449 17.3804 22.234 17.2071C22.159 17.1353 22.0845 17.0631 22.0104 16.9905C20.7118 15.7842 18.9489 15.1603 17.0808 15.1093C14.896 15.143 13.2299 16.1647 11.7214 17.4733C11.6096 17.5696 11.4953 17.6635 11.3806 17.757C10.7744 18.2631 10.3101 18.8638 9.82774 19.4624C9.67134 19.6555 9.51115 19.8457 9.34981 20.0356C9.05172 20.3879 8.75833 20.7432 8.46514 21.0988C8.05303 21.5984 7.63446 22.0932 7.20794 22.5832C7.16848 22.6287 7.12903 22.6742 7.08837 22.7211C7.0542 22.7603 7.02003 22.7995 6.98482 22.8399C6.85821 22.9828 6.85821 22.9828 6.76304 23.2C6.55819 23.3957 6.55819 23.3957 6.36302 23.4295C6.10098 23.4377 5.84332 23.4318 5.58137 23.4214C5.43803 23.4182 5.43803 23.4182 5.29181 23.4149C4.98643 23.4076 4.68127 23.3973 4.376 23.3869C4.16908 23.3815 3.96214 23.3762 3.7552 23.3711C3.24774 23.3582 2.74044 23.3429 2.23314 23.3257C2.26671 23.4586 2.30132 23.5912 2.33635 23.7238C2.35551 23.7977 2.37467 23.8716 2.39441 23.9478C2.47662 24.1878 2.58138 24.4057 2.7836 24.5857C3.00705 24.593 3.22861 24.5956 3.45211 24.5953C3.52343 24.5955 3.59475 24.5957 3.66822 24.5959C3.91035 24.5964 4.15248 24.5964 4.39461 24.5965C4.5687 24.5968 4.74278 24.5971 4.91686 24.5974C5.3977 24.5983 5.87853 24.5987 6.35937 24.599C6.8239 24.5993 7.28842 24.6 7.75295 24.6007C8.99805 24.6025 10.2432 24.6036 11.4883 24.6045C11.9005 24.6048 12.3127 24.6051 12.725 24.6054C14.9151 24.6072 17.1053 24.6087 19.2955 24.6096C19.8031 24.6098 20.3108 24.61 20.8184 24.6102C20.913 24.6103 20.913 24.6103 21.0095 24.6103C23.0555 24.6112 25.1015 24.6133 27.1474 24.6162C29.2494 24.6192 31.3514 24.6211 33.4534 24.6215C33.75 24.6215 34.0467 24.6216 34.3433 24.6216C34.4017 24.6217 34.46 24.6217 34.5202 24.6217C35.4614 24.6219 36.4026 24.6234 37.3438 24.6252C38.2891 24.627 39.2344 24.6276 40.1797 24.6268C40.6922 24.6264 41.2048 24.6267 41.7173 24.6284C42.1859 24.6299 42.6544 24.6299 43.123 24.6286C43.2931 24.6284 43.4632 24.6288 43.6334 24.6298C43.8635 24.6311 44.0934 24.6303 44.3235 24.629C44.4241 24.6303 44.4241 24.6303 44.5268 24.6317C44.732 24.633 44.732 24.633 45.0118 24.5857C45.9087 23.6308 45.6012 21.5536 45.5868 20.4031C45.586 20.2622 45.5855 20.1213 45.585 19.9804C45.5842 19.7527 45.5826 19.525 45.581 19.2973C45.5801 19.1739 45.5801 19.1739 45.5792 19.048C45.5734 18.5982 45.5498 18.1538 45.502 17.7059C45.4701 17.3758 45.4629 17.0461 45.459 16.7149C45.4568 16.6482 45.4545 16.5815 45.4521 16.5127C45.449 16.2037 45.4482 16.027 45.6326 15.7587C45.9356 15.515 46.205 15.5194 46.6027 15.5222C46.9087 15.569 47.0228 15.6818 47.2041 15.8973C48.459 18.007 47.8915 22.0614 47.3709 24.3057C47.357 24.3699 47.3431 24.4341 47.3288 24.5002C46.8991 26.4573 46.0143 28.3087 44.9332 30.0458C44.8641 30.1568 44.8641 30.1568 44.7937 30.2701C44.1265 31.3129 43.3433 32.3016 42.4951 33.2334C42.3904 33.3485 42.2865 33.4643 42.1836 33.5806C41.8079 34.0051 41.4169 34.412 41.0013 34.8059C40.9626 34.8428 40.9239 34.8796 40.884 34.9175C37.4882 38.1227 32.3713 40.1007 27.5318 40.7428C27.3318 40.7694 27.132 40.7968 26.9321 40.8243C23.5327 41.287 20.1449 40.9427 16.8741 40.033C16.7308 39.9938 16.5866 39.9573 16.4422 39.9215C14.4576 39.4241 12.5165 38.5514 10.8046 37.536C10.7368 37.4963 10.6691 37.4565 10.5993 37.4156C9.70532 36.89 8.8491 36.3544 8.05229 35.716C7.93935 35.6284 7.82632 35.5408 7.71317 35.4535C7.66563 35.416 7.61809 35.3786 7.56911 35.34C7.46216 35.2564 7.35407 35.174 7.24534 35.0922C7.18726 35.0483 7.12917 35.0044 7.06933 34.9591C7.01662 34.9196 6.96391 34.8802 6.9096 34.8396C6.7941 34.7359 6.7941 34.7359 6.7941 34.5959C6.7422 34.5959 6.6903 34.5959 6.63682 34.5959C6.53146 34.503 6.53146 34.503 6.40583 34.3684C6.17133 34.1217 5.92782 33.8858 5.67843 33.6509C3.69703 31.75 2.29293 29.3812 1.28949 26.9658C1.27094 26.9223 1.25238 26.8789 1.23326 26.8341C0.486198 25.0833 0.022226 23.1635 0.0153245 21.2902C0.0151021 21.243 0.0148804 21.1958 0.0146513 21.1472C0.0134771 20.8969 0.0127481 20.6466 0.0124063 20.3962C0.0120636 20.1923 0.0109787 19.9884 0.00918095 19.7845C-0.0201795 16.3836 -0.0201795 16.3836 0.670225 15.6605C0.987572 15.5131 1.25322 15.5004 1.60404 15.5555C1.91545 15.6993 2.12968 15.8489 2.31178 16.1155C2.32038 16.2862 2.32038 16.2862 2.29212 16.4655C2.2836 16.5247 2.27509 16.5839 2.26631 16.6449C2.23314 16.8155 2.23314 16.8155 2.19434 16.9414C1.95546 17.8656 2.05035 18.9091 2.03163 19.8519C2.02823 20.0126 2.0248 20.1734 2.02134 20.3342C2.013 20.7247 2.00499 21.1152 1.99723 21.5056C2.09632 21.4291 2.19532 21.3524 2.29427 21.2757C2.37698 21.2116 2.37698 21.2116 2.46135 21.1463C2.80744 20.8722 3.12643 20.5808 3.42714 20.2672C3.78667 19.8997 4.17702 19.5618 4.56737 19.2205C4.88935 18.937 5.19708 18.6481 5.49075 18.3411C5.61829 18.2118 5.75189 18.0911 5.88977 17.9706C6.0739 17.8096 6.246 17.6446 6.4132 17.4696C6.78875 17.0851 7.19836 16.7323 7.60627 16.3753C7.98227 16.044 8.33782 15.7035 8.68139 15.3455C9.07807 14.9446 9.48211 14.5553 9.91317 14.1834C10.1176 13.9965 10.3083 13.8013 10.5003 13.6044C10.7384 13.3632 10.985 13.1293 11.2322 12.8955C11.2839 12.8464 11.3356 12.7974 11.3888 12.7468C11.6911 12.461 11.9977 12.1804 12.3123 11.9054C12.4509 11.78 12.5805 11.6509 12.7094 11.5176C13.0092 11.2108 13.3181 10.9125 13.6306 10.616C13.6829 10.5659 13.7351 10.5158 13.789 10.4641C14.095 10.1738 14.4098 9.9039 14.7525 9.64786C14.9012 9.52943 15.0296 9.40348 15.1591 9.26849C15.7888 8.61585 16.4095 8.13039 17.2528 7.71533C17.302 7.69047 17.3512 7.6656 17.4019 7.63998C18.0285 7.39524 19.1173 7.49971 19.7398 7.70658ZM18.0491 9.92476C17.9172 10.0888 17.8799 10.1754 17.8377 10.3798C17.8944 10.6433 17.9688 10.7587 18.1965 10.9354C18.4748 10.9859 18.6466 10.9933 18.8901 10.8528C19.0955 10.6887 19.213 10.5859 19.2335 10.336C19.0665 10.0308 18.8661 9.85735 18.511 9.73225C18.2542 9.72485 18.2542 9.72485 18.0491 9.92476ZM20.4831 11.4295C20.3797 11.5721 20.3797 11.5721 20.3836 11.7886C20.5014 12.0369 20.6083 12.1307 20.8702 12.2654C21.1027 12.3238 21.1027 12.3238 21.342 12.2654C21.602 12.1067 21.7815 11.9413 21.8728 11.6704C21.7812 11.3988 21.6015 11.2357 21.342 11.0754C20.9184 10.9733 20.7302 11.1431 20.4831 11.4295ZM15.3213 11.4451C15.1881 11.5688 15.1881 11.5688 15.1493 11.7842C15.1926 11.9945 15.1926 11.9945 15.3705 12.1473C15.6547 12.2927 15.8223 12.3456 16.1519 12.3354C16.3608 12.2162 16.5315 12.0749 16.7024 11.9154C16.6959 11.7176 16.6556 11.5972 16.507 11.4487C16.0518 11.0842 15.7783 11.0734 15.3213 11.4451ZM17.9723 12.1536C17.856 12.2763 17.856 12.2763 17.8672 12.5148C17.9765 12.7965 18.0645 12.8892 18.3538 13.0355C18.5504 13.088 18.5504 13.088 18.747 13.0355C18.9813 12.8911 18.9813 12.8911 19.1401 12.6854C19.1547 12.4268 19.067 12.3413 18.8797 12.1429C18.5102 11.8676 18.3519 11.8457 17.9723 12.1536ZM3.56882 26.534C3.39311 26.7464 3.39311 26.7464 3.38812 26.9964C3.54387 27.3727 3.8755 27.6268 4.27771 27.8058C4.48818 27.8128 4.69662 27.8155 4.90712 27.8152C5.00632 27.8154 5.00632 27.8154 5.10753 27.8157C5.33156 27.8162 5.5556 27.8161 5.77963 27.8161C5.94091 27.8163 6.10218 27.8166 6.26346 27.8169C6.70854 27.8176 7.15363 27.8178 7.59871 27.818C8.078 27.8183 8.55728 27.819 9.03657 27.8196C10.1402 27.8209 11.2439 27.8216 12.3475 27.8222C12.8927 27.8225 13.4379 27.8229 13.9831 27.8232C15.8488 27.8245 17.7144 27.8255 19.5801 27.826C19.6973 27.8261 19.8144 27.8261 19.9316 27.8261C19.9897 27.8262 20.0478 27.8262 20.1077 27.8262C20.4021 27.8263 20.6965 27.8264 20.9909 27.8264C21.0493 27.8265 21.1077 27.8265 21.1679 27.8265C23.0624 27.8271 24.9569 27.8287 26.8514 27.831C28.8536 27.8334 30.8558 27.8347 32.858 27.835C33.0777 27.835 33.2974 27.835 33.5172 27.8351C33.5713 27.8351 33.6254 27.8351 33.6811 27.8351C34.5524 27.8353 35.4238 27.8364 36.2951 27.8378C37.1707 27.8392 38.0463 27.8396 38.9219 27.8389C39.3964 27.8386 39.8709 27.8388 40.3454 27.8401C40.7796 27.8413 41.2138 27.8413 41.648 27.8402C41.8052 27.84 41.9625 27.8403 42.1198 27.8412C42.3333 27.8422 42.5467 27.8415 42.7601 27.8404C42.8522 27.8415 42.8522 27.8415 42.946 27.8426C43.3796 27.8377 43.6316 27.7457 43.9895 27.5258C44.1933 27.3118 44.2903 27.1658 44.3532 26.8914C44.2957 26.6507 44.1918 26.5596 43.9774 26.4094C43.7124 26.275 43.4487 26.2877 43.1502 26.2915C43.0482 26.2907 43.0482 26.2907 42.9441 26.2899C42.7156 26.2886 42.4871 26.2897 42.2586 26.2908C42.0934 26.2904 41.9281 26.2898 41.7629 26.289C41.3083 26.2874 40.8538 26.288 40.3993 26.289C39.9093 26.2896 39.4193 26.2883 38.9293 26.2872C38.0247 26.2854 37.1201 26.2853 36.2156 26.286C35.38 26.2867 34.5444 26.2868 33.7088 26.2862C33.5968 26.2861 33.4848 26.286 33.3728 26.286C33.2039 26.2859 33.0351 26.2857 32.8663 26.2856C31.2967 26.2846 29.7271 26.2842 28.1575 26.2852C28.0687 26.2853 28.0687 26.2853 27.9782 26.2854C27.4976 26.2857 27.017 26.2861 26.5364 26.2864C24.6612 26.2878 22.7859 26.2871 20.9107 26.2848C18.8045 26.2823 16.6983 26.2811 14.5921 26.282C14.3676 26.2821 14.1432 26.2822 13.9187 26.2823C13.8358 26.2823 13.8358 26.2823 13.7513 26.2823C12.9161 26.2827 12.0809 26.2819 11.2458 26.2806C10.2963 26.2792 9.34693 26.2793 8.39751 26.2813C7.91282 26.2822 7.42815 26.2825 6.94346 26.281C6.50016 26.2796 6.05692 26.2801 5.61362 26.2822C5.45286 26.2827 5.2921 26.2824 5.13134 26.2813C4.91351 26.28 4.69588 26.2812 4.47805 26.2831C4.415 26.2821 4.35196 26.2811 4.287 26.2801C3.96609 26.2858 3.77986 26.3221 3.56882 26.534ZM5.37863 29.7658C5.26449 29.969 5.27071 30.0999 5.29999 30.3258C5.52128 30.6129 5.73477 30.8051 6.08636 30.9559C6.29172 30.9756 6.47793 30.9841 6.68296 30.9823C6.74268 30.9826 6.8024 30.9829 6.86394 30.9832C7.06475 30.984 7.26552 30.9832 7.46633 30.9825C7.61148 30.9828 7.75663 30.9831 7.90178 30.9835C8.3012 30.9844 8.70061 30.984 9.10003 30.9833C9.53059 30.9828 9.96115 30.9836 10.3917 30.9841C11.2355 30.9851 12.0793 30.9849 12.923 30.9843C13.6088 30.9838 14.2946 30.9837 14.9803 30.984C15.1266 30.984 15.1266 30.984 15.2759 30.9841C15.4739 30.9841 15.672 30.9842 15.8701 30.9843C17.676 30.9848 19.4819 30.9842 21.2878 30.9831C22.936 30.9821 24.5842 30.9822 26.2324 30.9832C28.084 30.9844 29.9357 30.9848 31.7873 30.9842C31.9848 30.9841 32.1823 30.984 32.3798 30.984C32.5255 30.9839 32.5255 30.9839 32.6742 30.9839C33.359 30.9837 34.0438 30.984 34.7287 30.9845C35.5635 30.9851 36.3982 30.9849 37.233 30.9838C37.659 30.9832 38.0849 30.983 38.5109 30.9837C38.9009 30.9843 39.2909 30.984 39.6809 30.9829C39.8219 30.9826 39.9629 30.9828 40.1039 30.9833C41.2041 31.0078 41.2041 31.0078 42.1987 30.6354C42.4122 30.4081 42.4927 30.3028 42.5101 29.9977C42.3972 29.7172 42.3055 29.6429 42.0236 29.4858C41.8078 29.4589 41.624 29.4481 41.4087 29.4506C41.3161 29.45 41.3161 29.45 41.2217 29.4494C41.0142 29.4483 40.8067 29.4493 40.5992 29.4503C40.4492 29.4499 40.2992 29.4495 40.1493 29.4489C39.7365 29.4478 39.3238 29.4484 38.9111 29.4492C38.4662 29.4499 38.0213 29.4489 37.5765 29.4481C36.7048 29.4469 35.8331 29.4471 34.9613 29.4479C34.2531 29.4486 33.5449 29.4487 32.8366 29.4484C32.736 29.4483 32.6353 29.4483 32.5315 29.4482C32.327 29.4481 32.1225 29.448 31.918 29.448C30.0537 29.4472 28.1894 29.448 26.3251 29.4494C24.6225 29.4508 22.9199 29.4507 21.2173 29.4493C19.3052 29.4478 17.393 29.4472 15.4809 29.4481C15.2771 29.4482 15.0733 29.4483 14.8696 29.4484C14.7693 29.4484 14.6691 29.4484 14.5658 29.4485C13.8581 29.4487 13.1504 29.4483 12.4427 29.4477C11.5807 29.4469 10.7187 29.4471 9.8567 29.4486C9.41662 29.4493 8.97655 29.4496 8.53646 29.4487C8.13401 29.4478 7.73159 29.4483 7.32915 29.4498C7.18315 29.4501 7.03715 29.4499 6.89116 29.4493C6.69346 29.4484 6.49586 29.4493 6.29817 29.4506C6.24082 29.4499 6.18347 29.4493 6.12439 29.4486C5.76303 29.4534 5.5977 29.5077 5.37863 29.7658ZM8.05229 32.9859C7.93434 33.1842 7.93434 33.1842 7.97366 33.4059C8.17301 33.6935 8.40552 33.9093 8.76003 34.0359C8.99877 34.057 8.99877 34.057 9.26778 34.0537C9.31885 34.054 9.36992 34.0542 9.42254 34.0544C9.5944 34.055 9.76623 34.0546 9.93808 34.0542C10.0622 34.0544 10.1864 34.0547 10.3106 34.055C10.6523 34.0557 10.9941 34.0556 11.3359 34.0553C11.7043 34.0551 12.0726 34.0557 12.441 34.0562C13.1629 34.0571 13.8848 34.0573 14.6068 34.0571C15.1934 34.057 15.7801 34.0571 16.3667 34.0574C16.4501 34.0574 16.5336 34.0575 16.6195 34.0575C16.7889 34.0576 16.9584 34.0577 17.1278 34.0578C18.7178 34.0585 20.3077 34.0584 21.8977 34.058C23.353 34.0576 24.8082 34.0584 26.2635 34.0597C27.7569 34.0611 29.2503 34.0616 30.7437 34.0614C31.5825 34.0612 32.4213 34.0614 33.2601 34.0624C33.9742 34.0632 34.6882 34.0633 35.4023 34.0625C35.7668 34.0621 36.1312 34.062 36.4957 34.0628C36.8292 34.0636 37.1627 34.0634 37.4963 34.0624C37.617 34.0622 37.7378 34.0624 37.8585 34.0629C38.0226 34.0637 38.1865 34.0631 38.3505 34.0622C38.4417 34.0622 38.5328 34.0622 38.6267 34.0622C39.0062 34.0226 39.263 33.8973 39.5416 33.6684C39.6857 33.4773 39.6857 33.4773 39.6743 33.2309C39.5879 32.9917 39.513 32.8627 39.2902 32.7082C38.8678 32.5349 38.3566 32.5883 37.8991 32.5915C37.7729 32.591 37.6466 32.5905 37.5204 32.5898C37.1736 32.5883 36.8268 32.5891 36.48 32.5901C36.1059 32.5909 35.7319 32.5897 35.3578 32.5887C34.6251 32.5872 33.8924 32.5875 33.1597 32.5885C32.5642 32.5893 31.9688 32.5894 31.3734 32.5891C31.2887 32.589 31.204 32.589 31.1167 32.5889C30.9447 32.5888 30.7726 32.5887 30.6006 32.5886C28.9867 32.5876 27.3728 32.5887 25.7589 32.5906C24.3736 32.5922 22.9884 32.5919 21.6032 32.5903C19.9951 32.5884 18.3871 32.5877 16.779 32.5887C16.6076 32.5888 16.4362 32.589 16.2647 32.5891C16.1382 32.5891 16.1382 32.5891 16.0091 32.5892C15.4143 32.5895 14.8195 32.589 14.2247 32.5882C13.5 32.5872 12.7752 32.5875 12.0505 32.5893C11.6806 32.5903 11.3108 32.5906 10.9409 32.5895C10.6024 32.5884 10.264 32.589 9.92552 32.5909C9.80296 32.5912 9.68041 32.591 9.55786 32.5902C8.70678 32.5628 8.70678 32.5628 8.05229 32.9859ZM12.8492 36.136C12.7705 36.3429 12.7705 36.3429 12.8492 36.556C13.2763 37.0153 13.8515 37.1918 14.5005 37.256C14.765 37.2658 15.0292 37.2663 15.2939 37.2663C15.3726 37.2666 15.4513 37.2668 15.5324 37.2671C15.7955 37.2679 16.0586 37.2681 16.3216 37.2684C16.5105 37.2688 16.6994 37.2693 16.8882 37.2698C17.4543 37.2711 18.0203 37.2719 18.5863 37.2725C18.8531 37.2728 19.12 37.2732 19.3868 37.2735C20.2743 37.2747 21.1617 37.2757 22.0491 37.2763C22.2791 37.2764 22.509 37.2765 22.7389 37.2767C22.796 37.2767 22.8532 37.2767 22.912 37.2768C23.8383 37.2773 24.7646 37.2791 25.6909 37.2814C26.6428 37.2837 27.5947 37.285 28.5466 37.2852C29.0808 37.2853 29.6149 37.286 30.149 37.2877C30.6512 37.2894 31.1534 37.2897 31.6556 37.289C31.8399 37.2889 32.0241 37.2894 32.2084 37.2903C32.46 37.2916 32.7116 37.2911 32.9633 37.2901C33.0361 37.2909 33.1088 37.2917 33.1838 37.2925C33.6493 37.2884 34.0089 37.2149 34.3958 36.976C34.6207 36.7513 34.7103 36.6393 34.7103 36.3372C34.6209 36.1084 34.529 36.0058 34.3171 35.856C34.0947 35.79 33.9582 35.777 33.7278 35.7764C33.655 35.776 33.5822 35.7757 33.5072 35.7753C33.4271 35.7753 33.3469 35.7752 33.2644 35.7752C33.1793 35.7749 33.0943 35.7746 33.0067 35.7743C32.7204 35.7733 32.4341 35.7729 32.1477 35.7725C31.943 35.7719 31.7383 35.7713 31.5336 35.7707C30.9184 35.769 30.3031 35.768 29.6879 35.7671C29.5142 35.7668 29.3404 35.7665 29.1667 35.7663C28.0882 35.7645 27.0096 35.763 25.9311 35.7621C25.6813 35.7619 25.4315 35.7617 25.1817 35.7615C25.0886 35.7614 25.0886 35.7614 24.9936 35.7613C23.9872 35.7604 22.9809 35.7581 21.9746 35.7552C20.9418 35.7522 19.9089 35.7506 18.8761 35.7502C18.296 35.75 17.716 35.7491 17.136 35.7468C16.5906 35.7447 16.0452 35.7443 15.4998 35.7451C15.2993 35.7451 15.0989 35.7445 14.8985 35.7433C14.6253 35.7417 14.3523 35.7423 14.0792 35.7434C13.9595 35.7419 13.9595 35.7419 13.8374 35.7405C13.3742 35.7451 13.135 35.7783 12.8492 36.136Z" fill="white"/>
<path d="M30.5916 18.6738C31.0988 19.0127 31.5621 19.3819 31.9988 19.7919C32.1559 19.9322 32.3143 20.0602 32.4829 20.1888C32.809 20.4418 33.1162 20.7081 33.4207 20.9814C33.4748 21.0296 33.5288 21.0778 33.5845 21.1274C33.755 21.2797 33.9253 21.4321 34.0956 21.5846C34.2106 21.6873 34.3257 21.7901 34.4407 21.8928C34.6517 22.0812 34.8626 22.2697 35.0734 22.4583C35.2927 22.6545 35.5123 22.8503 35.7322 23.0459C35.8109 23.1159 35.8895 23.1859 35.9682 23.2559C35.9422 23.3021 35.9163 23.3483 35.8895 23.3959C30.2064 23.3728 24.5233 23.3497 18.668 23.3259C18.7452 22.9822 18.7607 22.9308 19.012 22.7003C19.2941 22.4307 19.551 22.1516 19.8033 21.8602C20.1125 21.505 20.4345 21.1669 20.7767 20.8362C20.9613 20.6531 21.1343 20.4639 21.3072 20.2721C23.5835 17.7854 27.4692 16.674 30.5916 18.6738ZM25.9026 20.0358C25.7899 20.2364 25.7999 20.3727 25.824 20.5958C25.9537 20.8104 26.0643 20.9674 26.2859 21.1121C26.5203 21.1734 26.681 21.1862 26.9249 21.1558C27.1549 21.0281 27.3522 20.885 27.4753 20.6658C27.5147 20.4508 27.5097 20.3042 27.3949 20.1094C27.2311 19.9108 27.1015 19.7786 26.8284 19.7151C26.4255 19.6989 26.1865 19.7673 25.9026 20.0358Z" fill="white"/>
<path d="M4.4688 26.3001C4.5366 26.2997 4.6044 26.2992 4.67425 26.2988C4.90303 26.2977 5.13174 26.2986 5.36051 26.2995C5.52555 26.2991 5.69058 26.2986 5.85562 26.298C6.31037 26.2967 6.76509 26.2971 7.21984 26.2979C7.70979 26.2984 8.19974 26.2973 8.68969 26.2963C9.59448 26.2949 10.4993 26.2948 11.4041 26.2953C12.2399 26.2958 13.0758 26.2958 13.9117 26.2953C14.0237 26.2953 14.1358 26.2952 14.2478 26.2951C14.4166 26.295 14.5854 26.2949 14.7542 26.2948C16.3242 26.2939 17.8941 26.2936 19.4641 26.2944C19.5233 26.2944 19.5825 26.2944 19.6435 26.2945C20.1243 26.2947 20.6052 26.295 21.0861 26.2953C22.9618 26.2963 24.8375 26.2957 26.7132 26.2937C28.8197 26.2915 30.9262 26.2905 33.0326 26.2912C33.2572 26.2913 33.4817 26.2913 33.7062 26.2914C33.7615 26.2914 33.8168 26.2914 33.8737 26.2915C34.709 26.2917 35.5444 26.291 36.3797 26.2899C37.3295 26.2887 38.2792 26.2887 39.229 26.2903C39.7139 26.2911 40.1987 26.2913 40.6836 26.29C41.1271 26.2888 41.5706 26.2893 42.0142 26.291C42.1749 26.2914 42.3357 26.2911 42.4965 26.2902C42.7145 26.2891 42.9324 26.2901 43.1504 26.2917C43.2133 26.2908 43.2761 26.29 43.3409 26.2891C43.6575 26.2938 43.8554 26.3235 44.1078 26.5007C44.3045 26.6855 44.3045 26.6855 44.3585 26.8868C44.2868 27.1772 44.1527 27.3891 43.9113 27.5955C43.5312 27.8029 43.2068 27.8355 42.7711 27.8322C42.6713 27.8327 42.6713 27.8327 42.5695 27.8332C42.3461 27.834 42.1226 27.8333 41.8992 27.8327C41.7376 27.833 41.576 27.8334 41.4144 27.8338C40.9698 27.8348 40.5253 27.8345 40.0808 27.834C39.6016 27.8337 39.1223 27.8346 38.6431 27.8353C37.7584 27.8364 36.8738 27.8366 35.9891 27.8362C35.1718 27.8359 34.3545 27.836 33.5373 27.8364C33.4277 27.8364 33.3181 27.8365 33.2085 27.8365C33.0434 27.8366 32.8783 27.8367 32.7132 27.8368C31.1778 27.8375 29.6425 27.8379 28.1071 27.8373C28.0493 27.8373 27.9914 27.8373 27.9317 27.8372C27.4616 27.8371 26.9915 27.8369 26.5215 27.8367C24.6874 27.836 22.8534 27.8366 21.0193 27.8382C18.9592 27.84 16.8991 27.8409 14.839 27.8404C14.6194 27.8404 14.3999 27.8403 14.1803 27.8403C14.0992 27.8403 14.0992 27.8403 14.0165 27.8403C13.1997 27.8401 12.3829 27.8406 11.5661 27.8416C10.6375 27.8426 9.70885 27.8426 8.78022 27.8414C8.30619 27.8408 7.83217 27.8407 7.35815 27.8417C6.9245 27.8427 6.49089 27.8424 6.05725 27.841C5.90009 27.8408 5.74292 27.841 5.58576 27.8417C5.37263 27.8426 5.15959 27.8418 4.94646 27.8406C4.85428 27.8416 4.85428 27.8416 4.76024 27.8426C4.28292 27.8369 4.0257 27.6915 3.67145 27.4235C3.46915 27.2239 3.41344 27.1222 3.4082 26.8518C3.58997 26.3378 3.90846 26.2944 4.4688 26.3001Z" fill="#F3F4F4"/>
<path d="M6.27977 29.4766C6.34117 29.4765 6.40257 29.4763 6.46584 29.4761C6.67377 29.4757 6.8817 29.4757 7.08964 29.4757C7.23935 29.4755 7.38906 29.4752 7.53877 29.475C7.95188 29.4743 8.36499 29.474 8.7781 29.4738C9.22297 29.4735 9.66784 29.4729 10.1127 29.4723C11.1879 29.4709 12.263 29.4702 13.3382 29.4695C13.844 29.4692 14.3498 29.4689 14.8556 29.4685C16.5362 29.4673 18.2168 29.4663 19.8974 29.4658C20.0061 29.4657 20.1148 29.4657 20.2235 29.4657C20.2774 29.4657 20.3313 29.4656 20.3869 29.4656C20.6601 29.4655 20.9332 29.4655 21.2064 29.4654C21.2606 29.4654 21.3148 29.4653 21.3707 29.4653C23.129 29.4648 24.8873 29.4631 26.6456 29.4609C28.5037 29.4585 30.3618 29.4571 32.2199 29.4568C33.2331 29.4567 34.2463 29.4561 35.2595 29.4543C36.1222 29.4528 36.9848 29.4522 37.8475 29.4529C38.2879 29.4532 38.7283 29.4531 39.1687 29.4517C39.5715 29.4505 39.9744 29.4505 40.3772 29.4516C40.5233 29.4518 40.6693 29.4515 40.8154 29.4507C41.0134 29.4496 41.2112 29.4503 41.4092 29.4514C41.4664 29.4507 41.5236 29.45 41.5826 29.4492C41.8603 29.4526 42.0162 29.4814 42.2537 29.6137C42.4177 29.766 42.4177 29.766 42.5111 29.9979C42.4937 30.303 42.4131 30.4084 42.1996 30.6356C41.5235 31.0622 40.6867 30.9862 39.8985 30.9842C39.753 30.9845 39.6075 30.985 39.462 30.9856C39.0632 30.9869 38.6643 30.9868 38.2655 30.9866C37.835 30.9866 37.4045 30.9877 36.974 30.9887C36.131 30.9905 35.288 30.991 34.4451 30.9912C33.76 30.9913 33.075 30.9917 32.3899 30.9923C30.4478 30.9942 28.5056 30.9952 26.5635 30.995C26.5112 30.995 26.4588 30.995 26.4049 30.995C26.2992 30.995 26.1934 30.995 26.0876 30.995C24.4409 30.9948 22.7942 30.9964 21.1476 30.9993C19.2969 31.0025 17.4463 31.0043 15.5956 31.0041C14.6159 31.0041 13.6362 31.0046 12.6566 31.0069C11.8227 31.0088 10.9889 31.0093 10.1551 31.0078C9.7296 31.0072 9.30416 31.0071 8.87868 31.009C8.48921 31.0106 8.09981 31.0103 7.71034 31.0085C7.56943 31.0082 7.42852 31.0085 7.28761 31.0097C6.01502 31.0196 6.01502 31.0196 5.56168 30.6466C5.39653 30.4701 5.30459 30.356 5.27637 30.1248C5.30395 29.8793 5.37274 29.7527 5.53685 29.556C5.77425 29.4504 6.01937 29.4762 6.27977 29.4766Z" fill="#F3F5F5"/>
<path d="M20.3114 17.2402C20.5023 17.3748 20.6869 17.5138 20.8705 17.6561C20.9589 17.7174 21.0473 17.7787 21.1359 17.8399C21.3632 18.023 21.4991 18.1938 21.6568 18.4261C21.5769 18.4822 21.5769 18.4822 21.4953 18.5393C20.7468 19.0727 20.0915 19.6452 19.4925 20.3132C19.2653 20.5616 19.0289 20.8017 18.7915 21.0424C18.4092 21.432 18.0452 21.8298 17.6943 22.242C17.6621 22.2775 17.6299 22.313 17.5967 22.3496C17.4781 22.492 17.4781 22.492 17.3801 22.6909C17.1836 23.0061 17.0069 23.2669 16.6017 23.3735C16.04 23.4478 15.4718 23.4224 14.906 23.4083C14.7219 23.4067 14.5378 23.4055 14.3537 23.4047C13.8707 23.4015 13.388 23.3932 12.9051 23.3839C12.4118 23.3753 11.9184 23.3715 11.4249 23.3672C10.458 23.3583 9.49122 23.3439 8.52441 23.3262C8.58007 23.1099 8.64732 22.9695 8.79565 22.79C8.83586 22.7409 8.87607 22.6918 8.9175 22.6412C8.96133 22.5886 9.00515 22.536 9.0503 22.4818C9.09569 22.4266 9.14109 22.3714 9.18786 22.3146C9.33317 22.1381 9.47919 21.9621 9.62534 21.7862C9.72037 21.6715 9.81539 21.5567 9.9104 21.4419C10.0504 21.2728 10.1905 21.1037 10.3309 20.9349C10.5698 20.6473 10.8049 20.358 11.0348 20.0646C12.2452 18.5237 13.8762 16.8406 16.038 16.4264C17.5643 16.2558 19.0366 16.432 20.3114 17.2402ZM16.3095 18.9861C16.255 19.2641 16.2409 19.4218 16.3795 19.673C16.5493 19.8826 16.701 19.9656 16.973 20.0493C17.3572 20.0313 17.4595 19.9281 17.725 19.6861C17.8358 19.4887 17.8229 19.3452 17.8036 19.1261C17.6725 18.8815 17.5881 18.7883 17.3318 18.6361C16.8576 18.5804 16.6214 18.6611 16.3095 18.9861Z" fill="white"/>
<path d="M13.2036 1.20706C14.1037 1.84157 14.7322 2.62844 14.894 3.65548C14.9874 4.76984 14.6419 5.70421 13.8573 6.5764C13.1929 7.21931 12.2678 7.66429 11.281 7.73909C9.96627 7.76426 8.89066 7.43909 7.92353 6.63164C7.61952 6.3431 7.39477 6.03442 7.18753 5.68552C7.15337 5.62913 7.11921 5.57273 7.08401 5.51462C6.67113 4.69629 6.76167 3.5988 7.10674 2.77226C7.3662 2.29378 7.71095 1.93014 8.13118 1.55543C8.18237 1.50905 8.23356 1.46267 8.2863 1.41488C9.61223 0.295153 11.7398 0.297036 13.2036 1.20706Z" fill="white"/>
<path d="M9.73903 32.5913C9.86528 32.5909 9.99153 32.5903 10.1178 32.5896C10.4646 32.5881 10.8114 32.5889 11.1582 32.59C11.5322 32.5907 11.9063 32.5895 12.2803 32.5886C13.0131 32.587 13.7458 32.5873 14.4785 32.5884C15.0739 32.5891 15.6693 32.5893 16.2648 32.5889C16.3495 32.5888 16.4342 32.5888 16.5214 32.5887C16.6935 32.5886 16.8655 32.5885 17.0376 32.5884C18.6515 32.5874 20.2654 32.5885 21.8793 32.5904C23.2645 32.592 24.6497 32.5917 26.035 32.5901C27.643 32.5882 29.2511 32.5875 30.8591 32.5885C31.0306 32.5887 31.202 32.5888 31.3734 32.5889C31.4578 32.5889 31.5421 32.589 31.629 32.589C32.2238 32.5893 32.8186 32.5888 33.4135 32.588C34.1382 32.587 34.8629 32.5873 35.5876 32.5892C35.9575 32.5901 36.3274 32.5904 36.6972 32.5893C37.0357 32.5882 37.3742 32.5888 37.7126 32.5907C37.8352 32.5911 37.9578 32.5909 38.0803 32.59C39.1107 32.5834 39.1107 32.5834 39.42 32.7985C39.6321 33.0379 39.6825 33.1706 39.6645 33.4757C39.4456 33.7794 39.2615 33.9298 38.8781 34.0357C38.6367 34.0535 38.6367 34.0535 38.3607 34.0538C38.284 34.0541 38.284 34.0541 38.2057 34.0545C38.034 34.0551 37.8623 34.0548 37.6906 34.0545C37.5664 34.0547 37.4422 34.055 37.3179 34.0554C36.9763 34.0563 36.6347 34.0563 36.2931 34.0561C35.9248 34.0561 35.5565 34.0568 35.1882 34.0575C34.4665 34.0587 33.7449 34.0591 33.0233 34.0591C32.4368 34.0592 31.8504 34.0595 31.264 34.0599C29.602 34.0612 27.9401 34.0618 26.2781 34.0617C26.1885 34.0617 26.0989 34.0617 26.0066 34.0617C25.9168 34.0617 25.8271 34.0617 25.7347 34.0617C24.2799 34.0616 22.8252 34.063 21.3704 34.0649C19.8773 34.0669 18.3843 34.0679 16.8912 34.0678C16.0527 34.0677 15.2142 34.0681 14.3757 34.0696C13.6619 34.0709 12.9481 34.0712 12.2343 34.0703C11.87 34.0698 11.5057 34.0698 11.1414 34.071C10.808 34.0721 10.4747 34.0719 10.1413 34.0707C10.0206 34.0705 9.89988 34.0707 9.77918 34.0715C9.61521 34.0725 9.45136 34.0718 9.28739 34.0706C9.19629 34.0706 9.10519 34.0706 9.01133 34.0707C8.61815 34.016 8.37605 33.8319 8.09657 33.5895C7.9737 33.4057 7.9737 33.4057 7.96387 33.1957C8.26512 32.4806 9.01573 32.5863 9.73903 32.5913Z" fill="#F1F3F3"/>
<path d="M14.0778 35.7429C14.163 35.7425 14.2481 35.742 14.3359 35.7416C14.6218 35.7405 14.9075 35.7419 15.1934 35.7434C15.3981 35.7431 15.6029 35.7427 15.8076 35.7422C16.3062 35.7412 16.8049 35.742 17.3035 35.7435C17.8842 35.7452 18.4648 35.7451 19.0455 35.7449C20.0815 35.7447 21.1175 35.7461 22.1535 35.7485C23.1588 35.7508 24.1642 35.7518 25.1696 35.7514C26.2642 35.7509 27.3589 35.7511 28.4536 35.7524C28.5115 35.7525 28.5694 35.7526 28.629 35.7527C28.7453 35.7528 28.8615 35.753 28.9778 35.7531C29.3826 35.7536 29.7873 35.7536 30.1921 35.7535C30.7369 35.7534 31.2816 35.7545 31.8264 35.7563C32.0266 35.7568 34.5098 36.4823 34.71 36.4821C34.9828 36.4818 32.9724 35.7575 33.2452 35.7588C33.3647 35.7583 33.3647 35.7583 33.4866 35.7577C33.9758 35.7619 34.2602 35.8124 34.6216 36.1233C34.71 36.2765 34.71 36.2765 34.71 36.4821C34.5877 36.8156 34.3642 36.9753 34.0374 37.16C33.6775 37.2881 33.3676 37.2854 32.9835 37.2827C32.905 37.2829 32.8265 37.2832 32.7456 37.2835C32.4826 37.2842 32.2197 37.2834 31.9567 37.2825C31.7681 37.2827 31.5795 37.283 31.3909 37.2833C30.9318 37.2839 30.4728 37.2835 30.0137 37.2827C29.4786 37.2817 28.9435 37.2818 28.4084 37.282C27.4531 37.2822 26.4979 37.2814 25.5426 37.28C24.6168 37.2787 23.6909 37.2782 22.765 37.2786C21.7561 37.279 20.7472 37.279 19.7383 37.2782C19.6306 37.2781 19.5228 37.278 19.4151 37.2779C19.3621 37.2779 19.3091 37.2779 19.2545 37.2778C18.882 37.2775 18.5095 37.2776 18.137 37.2777C17.6348 37.2778 17.1327 37.2773 16.6305 37.2762C16.4465 37.2759 16.2624 37.2758 16.0784 37.276C15.8266 37.2762 15.5749 37.2756 15.3231 37.2747C15.2146 37.2751 15.2146 37.2751 15.1038 37.2755C14.2743 37.2706 13.5889 37.1593 12.9518 36.6628C12.8489 36.5565 12.8489 36.5565 12.8096 36.3552C12.9231 35.7235 13.4922 35.7365 14.0778 35.7429Z" fill="#F2F3F3"/>
<path d="M34.6315 6.10547C35.5022 6.63695 35.9927 7.20086 36.2043 8.13551C36.2707 8.63926 36.256 9.14764 36.251 9.65395C36.2508 9.79942 36.2508 9.9449 36.251 10.0904C36.2508 10.394 36.2494 10.6976 36.2469 11.0013C36.2438 11.3859 36.2434 11.7704 36.244 12.155C36.2443 12.4552 36.2433 12.7555 36.242 13.0557C36.2414 13.1973 36.2412 13.3388 36.2412 13.4804C36.2406 14.3577 36.1717 15.2035 36.0212 16.0709C35.9578 16.4396 35.9372 16.8018 35.9487 17.1745C35.9491 17.2319 35.9495 17.2894 35.9499 17.3487C35.952 17.6418 35.952 17.6418 36.0077 17.9295C36.284 18.957 36.0433 20.2043 35.8111 21.2258C35.4402 21.172 35.2784 21.0072 35.0614 20.7441C34.8114 20.2707 34.8789 19.7254 34.8898 19.2132C34.8906 19.0799 34.8912 18.9466 34.8915 18.8132C34.8927 18.5271 34.8956 18.241 34.8999 17.9549C34.9066 17.5025 34.9092 17.0501 34.9113 16.5977C34.9159 15.7194 34.9246 14.8412 34.9337 13.963C34.9452 12.8441 34.9548 11.7253 34.9607 10.6063C34.9632 10.1565 34.9677 9.70676 34.9738 9.25696C34.9773 8.97748 34.9791 8.69801 34.9805 8.41852C34.9815 8.28884 34.9831 8.15917 34.9855 8.02951C34.9887 7.85261 34.9895 7.67582 34.9896 7.4989C34.9919 7.42181 34.9919 7.42181 34.9943 7.34317C34.9917 7.07197 34.9556 6.95613 34.763 6.74164C34.5398 6.58641 34.354 6.51763 34.0811 6.45548C34.2769 6.40738 34.4254 6.38548 34.6315 6.38548C34.6315 6.29307 34.6315 6.20067 34.6315 6.10547Z" fill="white"/>
<path d="M36.244 19.5105V13.8054L35.8115 13.7354V21.2255L36.0081 21.0855L36.0868 20.8755L36.2047 20.2805L36.244 19.9655V19.5105Z" fill="white"/>
<path d="M32.8232 5.33496C32.9365 5.3445 33.0497 5.35451 33.1629 5.36472C33.226 5.37024 33.289 5.37576 33.354 5.38145C33.8243 5.44392 34.2549 5.73923 34.568 6.0481C34.6386 6.14556 34.6386 6.14556 34.7105 6.24498C34.6846 6.31428 34.6586 6.38358 34.6319 6.45499C34.4502 6.45499 34.2686 6.45499 34.0814 6.45499C33.9981 7.58793 33.9889 8.72026 33.9847 9.85514C33.9835 10.1876 33.9816 10.5201 33.9796 10.8525C33.9741 11.7968 33.9693 12.741 33.9653 13.6853C33.9631 14.2093 33.9603 14.7334 33.9569 15.2575C33.9552 15.5332 33.9537 15.8089 33.953 16.0847C33.9498 17.1976 33.9427 18.301 33.7669 19.4053C33.715 19.4053 33.6631 19.4053 33.6096 19.4053C33.4794 19.2877 33.4794 19.2877 33.3344 19.134C33.1937 18.9859 33.056 18.8425 32.9019 18.7053C32.8857 18.528 32.8795 18.3583 32.88 18.1808C32.8795 18.1261 32.8791 18.0714 32.8786 18.015C32.8773 17.8307 32.877 17.6464 32.8768 17.462C32.8761 17.3303 32.8753 17.1985 32.8744 17.0668C32.8723 16.7083 32.8711 16.3497 32.8701 15.9912C32.8688 15.6169 32.8667 15.2425 32.8647 14.8681C32.861 14.1589 32.8581 13.4496 32.8555 12.7403C32.8525 11.9329 32.8486 11.1256 32.8447 10.3183C32.8365 8.65718 32.8295 6.99607 32.8232 5.33496Z" fill="white"/>
<path d="M31.8795 5.33514C31.874 5.40304 31.8684 5.47094 31.8626 5.54089C31.8095 6.2185 31.7899 6.89249 31.792 7.57191C31.792 7.67829 31.792 7.78466 31.7919 7.89103C31.7919 8.17588 31.7924 8.46073 31.7929 8.74558C31.7934 9.04472 31.7935 9.34386 31.7935 9.64301C31.7938 10.2077 31.7944 10.7724 31.7952 11.3372C31.7961 11.9808 31.7965 12.6245 31.7969 13.2681C31.7978 14.5906 31.7991 15.913 31.8009 17.2354C31.4863 17.2354 31.4863 17.2354 31.2864 17.0719C31.2162 17.0017 31.1469 16.9307 31.0784 16.8592C31.043 16.8236 31.0076 16.788 30.9711 16.7514C30.6429 16.4185 30.6075 16.2164 30.598 15.7842C30.5957 15.6995 30.5957 15.6995 30.5934 15.6132C30.5885 15.4236 30.5841 15.2339 30.5799 15.0443C30.5766 14.9094 30.5733 14.7744 30.57 14.6395C30.5324 13.0369 30.5166 11.4341 30.5008 9.83118C30.4968 9.42459 30.4925 9.018 30.4882 8.61141C30.4799 7.82266 30.4719 7.03391 30.4641 6.24516C30.404 6.24516 30.344 6.24516 30.2822 6.24516C30.1331 6.24516 29.984 6.24516 29.835 6.24516C30.4472 5.62908 30.944 5.32644 31.8795 5.33514Z" fill="white"/>
<path d="M41.0801 13.0352C41.5458 13.0812 41.9572 13.1242 42.3383 13.2856C42.49 13.35 42.637 13.4331 42.7806 13.5427C42.8163 13.5831 42.852 13.6235 42.8887 13.6652C42.7071 13.6652 42.5254 13.6652 42.3383 13.6652C42.3123 16.8299 42.2864 19.9947 42.2596 23.2554C41.8704 23.2554 41.4811 23.2554 41.0801 23.2554C41.0801 19.8827 41.0801 16.51 41.0801 13.0352Z" fill="white"/>
<path d="M40.1967 12.9591C40.2666 12.9593 40.3366 12.9595 40.4087 12.9598C40.5172 12.9606 40.5172 12.9606 40.628 12.9615C40.7016 12.9619 40.7752 12.9622 40.851 12.9625C41.0322 12.9633 41.2135 12.9645 41.3947 12.9659C41.2909 12.989 41.1871 13.0121 41.0801 13.0359C41.0801 16.4317 41.0801 19.8275 41.0801 23.3262C40.7428 23.3262 40.4054 23.3262 40.0579 23.3262C39.9312 20.8474 39.8859 18.3739 39.8908 15.8929C39.8909 15.8236 39.891 15.7543 39.8912 15.6829C39.893 14.8239 39.8961 13.9649 39.9006 13.1059C39.693 13.129 39.4854 13.1521 39.2715 13.1759C39.5889 12.9875 39.8202 12.9569 40.1967 12.9591Z" fill="white"/>
<path d="M33.1034 0.124484C33.6656 0.374729 34.119 0.706682 34.3469 1.23904C34.5166 1.84717 34.4215 2.41104 34.0815 2.95517C33.791 3.36456 33.4304 3.60381 32.9019 3.72519C32.3203 3.79136 31.807 3.76663 31.3291 3.44518C30.843 3.06574 30.5874 2.58192 30.5099 2.01453C30.4859 1.47872 30.5353 1.06023 30.936 0.645121C31.574 0.111032 32.2467 -0.182397 33.1034 0.124484Z" fill="white"/>
<path d="M43.3606 13.9256C43.5573 14.1884 43.523 14.2827 43.4911 14.5934C43.4168 15.4284 43.4102 16.2648 43.395 17.102C43.3933 17.1888 43.3916 17.2755 43.3899 17.365C43.352 19.3686 43.3531 21.3719 43.3606 23.3759C42.608 23.3759 41.8554 23.3759 41.0801 23.3759C41.0801 23.3528 41.0801 23.3297 41.0801 23.3059C41.4693 23.3059 41.8586 23.3059 42.2596 23.3059C42.2595 23.1909 42.2593 23.0759 42.2591 22.9574C42.2575 21.8748 42.2563 20.7922 42.2556 19.7097C42.2552 19.1531 42.2546 18.5965 42.2537 18.0399C42.2529 17.5548 42.2524 17.0696 42.2522 16.5845C42.2521 16.3276 42.2519 16.0708 42.2513 15.8139C42.2507 15.5271 42.2507 15.2404 42.2507 14.9536C42.2503 14.8259 42.2503 14.8259 42.2499 14.6956C42.25 14.6174 42.2501 14.5391 42.2502 14.4585C42.2501 14.3907 42.25 14.3229 42.25 14.253C42.2596 14.0671 42.2917 13.8968 42.3383 13.7156C42.799 13.6172 42.9966 13.6544 43.3606 13.9256Z" fill="white"/>
<path d="M39.2709 13.1758C39.2709 16.5023 39.2709 19.8287 39.2709 23.256C39.5304 23.256 39.7899 23.256 40.0573 23.256C40.0573 23.2791 40.0573 23.3022 40.0573 23.326C39.4345 23.326 38.8116 23.326 38.17 23.326C38.1708 23.055 38.1716 22.784 38.1725 22.5048C38.1751 21.6096 38.1768 20.7144 38.1781 19.8192C38.1789 19.2764 38.18 18.7337 38.1818 18.1909C38.1834 17.7177 38.1844 17.2445 38.1848 16.7713C38.185 16.5209 38.1855 16.2704 38.1866 16.02C38.1879 15.7401 38.1879 15.4602 38.1878 15.1804C38.1884 15.0977 38.189 15.015 38.1895 14.9298C38.1884 14.5275 38.1677 14.1852 38.0127 13.8058C38.9151 13.1758 38.9151 13.1758 39.2709 13.1758Z" fill="white"/>
<path d="M25.1156 2.24704C25.4753 2.24034 25.835 2.23536 26.1947 2.23182C26.3269 2.23024 26.4591 2.22807 26.5912 2.22527C26.7734 2.22153 26.9555 2.22001 27.1377 2.21905C27.2906 2.21697 27.2906 2.21697 27.4465 2.21484C27.7811 2.26642 27.8952 2.37331 28.1047 2.6057C28.1813 2.82101 28.1462 2.93304 28.1047 3.16571C27.8835 3.37901 27.7486 3.44078 27.4241 3.48393C27.3102 3.48683 27.1961 3.4882 27.0821 3.48837C27.0186 3.48955 26.9552 3.49073 26.8898 3.49194C26.6771 3.49546 26.4645 3.49691 26.2518 3.49822C26.1015 3.49994 25.9511 3.50173 25.8007 3.50358C25.4693 3.50729 25.1379 3.50987 24.8065 3.51182C24.4152 3.51423 24.0239 3.51826 23.6326 3.52344C23.1484 3.52984 22.6642 3.53484 22.18 3.53825C21.9141 3.54013 21.6482 3.54252 21.3823 3.5462C21.0822 3.54995 20.7822 3.55144 20.4821 3.55236C20.3468 3.55473 20.3468 3.55473 20.2088 3.55715C19.5241 3.55555 19.5241 3.55555 19.2823 3.3428C19.2119 3.25514 19.2119 3.25514 19.1401 3.16571C19.1141 3.14261 19.0882 3.11951 19.0614 3.09571C19.0315 2.85617 19.0224 2.72451 19.1819 2.52488C19.4433 2.35091 19.6748 2.3502 19.9894 2.34565C20.0513 2.34371 20.1131 2.34176 20.1768 2.33976C20.3817 2.33371 20.5865 2.32966 20.7915 2.32569C20.9339 2.32202 21.0764 2.31827 21.2189 2.31445C22.1943 2.28971 23.1701 2.27663 24.1458 2.26297C24.4691 2.25841 24.7924 2.25312 25.1156 2.24704Z" fill="white"/>
<path d="M37.9343 13.876C37.9862 13.876 38.0381 13.876 38.0916 13.876C38.297 14.2921 38.271 14.7034 38.2692 15.1489C38.2695 15.2345 38.2697 15.3202 38.27 15.4084C38.2706 15.6424 38.2705 15.8764 38.27 16.1104C38.2696 16.3556 38.2699 16.6008 38.2702 16.846C38.2705 17.2576 38.2701 17.6691 38.2693 18.0807C38.2685 18.5563 38.2688 19.032 38.2696 19.5076C38.2703 19.9164 38.2704 20.3252 38.27 20.734C38.2698 20.978 38.2698 21.222 38.2703 21.466C38.2708 21.7378 38.2701 22.0096 38.2692 22.2814C38.2695 22.3622 38.2698 22.443 38.2702 22.5263C38.2697 22.6003 38.2693 22.6743 38.2688 22.7505C38.2688 22.8147 38.2687 22.879 38.2686 22.9452C38.2477 23.1259 38.1943 23.2407 38.0916 23.3962C38.0137 23.3962 37.9359 23.3962 37.8557 23.3962C37.7033 23.2351 37.7033 23.2351 37.5411 23.0243C37.3432 22.7585 37.3432 22.7585 37.1008 22.5272C36.9611 22.3864 36.9616 22.317 36.9626 22.1313C36.9624 22.0734 36.9622 22.0155 36.9619 21.9559C36.9629 21.8926 36.9638 21.8294 36.9648 21.7642C36.9649 21.6973 36.965 21.6305 36.9651 21.5616C36.9658 21.3398 36.9683 21.1181 36.971 20.8964C36.9722 20.7419 36.9733 20.5874 36.9745 20.433C36.9771 20.1085 36.9807 19.784 36.9848 19.4595C36.99 19.0457 36.9924 18.6319 36.994 18.218C36.9956 17.8985 36.9991 17.579 37.003 17.2595C37.0046 17.1071 37.0056 16.9546 37.0059 16.8022C37.0097 15.7178 37.0848 14.7342 37.9343 13.876Z" fill="white"/>
<path d="M4.01913 10.7224C4.22819 10.7196 4.43722 10.7179 4.64631 10.7168C4.71017 10.7165 4.77404 10.7162 4.83985 10.7158C4.90117 10.716 4.96249 10.7161 5.02567 10.7163C5.1053 10.7164 5.1053 10.7164 5.18653 10.7165C5.37862 10.7256 5.37862 10.7256 5.65294 10.7612C6.10248 10.8132 6.55178 10.8002 7.00419 10.7951C7.19782 10.7938 7.39144 10.7926 7.58507 10.7915C7.88863 10.7893 8.19218 10.7868 8.49573 10.7836C8.78984 10.7806 9.08393 10.779 9.37805 10.7776C9.51457 10.7756 9.51457 10.7756 9.65384 10.7736C9.78064 10.7732 9.78064 10.7732 9.91001 10.7729C10.0214 10.7719 10.0214 10.7719 10.135 10.7708C10.3728 10.8006 10.479 10.8541 10.6473 11.0056C10.6922 11.2762 10.7201 11.4542 10.5641 11.693C10.4249 11.8453 10.2953 11.9673 10.0968 12.0556C9.73223 12.0659 9.38314 12.0569 9.02108 12.0197C8.44568 11.9718 7.87123 11.9823 7.29416 11.9889C7.02026 11.9919 6.74635 11.9935 6.47243 11.9952C5.9643 11.9984 5.4562 12.0022 4.94811 12.0082C4.59275 12.0123 4.23742 12.0148 3.88203 12.0161C3.74714 12.0169 3.61226 12.0184 3.4774 12.0205C3.28921 12.0234 3.10116 12.0241 2.91295 12.0242C2.82997 12.0263 2.82997 12.0263 2.74532 12.0284C2.44027 12.0261 2.32029 11.9918 2.08086 11.8174C1.92241 11.6399 1.86449 11.5726 1.86943 11.3512C1.91858 11.0756 1.91858 11.0756 2.07616 10.9217C2.37812 10.7601 2.64211 10.7485 2.9851 10.7431C3.0823 10.7401 3.0823 10.7401 3.18148 10.7371C3.46066 10.7296 3.73987 10.7266 4.01913 10.7224Z" fill="white"/>
<path d="M43.4387 14.0859C43.4906 14.0859 43.5425 14.0859 43.596 14.0859C43.6983 14.2387 43.7997 14.3918 43.9007 14.5453C43.9294 14.588 43.9581 14.6306 43.9876 14.6745C44.0155 14.7172 44.0434 14.7598 44.0721 14.8037C44.0976 14.8422 44.1232 14.8807 44.1495 14.9204C44.3922 15.3877 44.4042 15.8176 44.4002 16.3249C44.4002 16.4007 44.4002 16.4766 44.4003 16.5548C44.4002 16.8044 44.3989 17.0539 44.3977 17.3035C44.3974 17.4771 44.3972 17.6506 44.397 17.8241C44.3964 18.2799 44.3949 18.7357 44.3931 19.1916C44.3914 19.6571 44.3908 20.1225 44.39 20.588C44.3883 21.5007 44.3857 22.4134 44.3823 23.3261C44.2136 23.328 44.0449 23.3294 43.8761 23.3305C43.7821 23.3313 43.6882 23.3321 43.5914 23.333C43.3601 23.3261 43.3601 23.3261 43.2814 23.2561C43.2737 23.1531 43.2714 23.0497 43.2712 22.9463C43.271 22.8794 43.2708 22.8125 43.2705 22.7435C43.2707 22.6695 43.2708 22.5955 43.271 22.5192C43.2709 22.4417 43.2708 22.3642 43.2707 22.2844C43.2705 22.0264 43.271 21.7684 43.2716 21.5105C43.2717 21.4224 43.2718 21.3342 43.2719 21.2434C43.2737 19.8476 43.2895 18.4522 43.3158 17.0566C43.3174 16.9714 43.3189 16.8861 43.3205 16.7983C43.3373 15.8924 43.3601 14.9894 43.4387 14.0859Z" fill="white"/>
<path d="M29.7554 6.24512C29.7554 6.45512 29.7554 6.45512 29.6768 6.59513C29.56 7.5355 29.5879 8.48796 29.5904 9.43238C29.5906 9.59557 29.5907 9.75876 29.5908 9.92195C29.5911 10.3477 29.5918 10.7735 29.5927 11.1993C29.5935 11.6353 29.5939 12.0713 29.5943 12.5073C29.5951 13.3599 29.5965 14.2126 29.5981 15.0653C29.3028 14.9439 29.1355 14.7983 28.9199 14.5797C28.8588 14.5184 28.7978 14.4571 28.735 14.394C28.4421 14.0835 28.3952 13.8868 28.3957 13.494C28.3952 13.4411 28.3947 13.3881 28.3941 13.3335C28.3926 13.1579 28.3923 12.9823 28.3921 12.8067C28.3916 12.6839 28.3911 12.5612 28.3906 12.4384C28.3896 12.1805 28.3893 11.9225 28.3894 11.6645C28.3894 11.3367 28.3873 11.0089 28.3846 10.681C28.3828 10.427 28.3825 10.1729 28.3826 9.91886C28.3824 9.7982 28.3817 9.67754 28.3805 9.55689C28.3714 8.57083 28.4562 7.4972 29.1263 6.66513C29.3227 6.50328 29.5271 6.36915 29.7554 6.24512Z" fill="white"/>
<path d="M37.7775 9.6051C38.4617 9.60348 39.146 9.60223 39.8302 9.60147C40.1479 9.60111 40.4656 9.60061 40.7833 9.59982C41.0897 9.59906 41.3962 9.59864 41.7026 9.59846C41.8197 9.59833 41.9367 9.59807 42.0538 9.5977C42.2174 9.59719 42.381 9.59712 42.5447 9.59715C42.6379 9.597 42.7312 9.59684 42.8272 9.59668C43.0462 9.6051 43.0462 9.6051 43.2035 9.6751C43.1695 10.0371 43.0546 10.2054 42.7759 10.467C42.6811 10.5575 42.6811 10.5575 42.5845 10.6499C42.2769 10.9167 41.9891 10.8733 41.5816 10.8695C41.5185 10.8692 41.4555 10.8689 41.3905 10.8685C41.2347 10.8677 41.0788 10.8665 40.923 10.8651C40.9359 10.9503 40.9489 11.0355 40.9623 11.1233C41.0167 11.5501 41.0083 11.9762 41.0016 12.4052C40.8197 12.3953 40.6379 12.385 40.4561 12.3745C40.3548 12.3689 40.2535 12.3632 40.1492 12.3573C39.9007 12.3352 39.9007 12.3352 39.8221 12.2652C39.8141 12.1224 39.8119 11.9793 39.8122 11.8364C39.812 11.7583 39.8118 11.6801 39.8116 11.5996C39.8223 11.3505 39.8564 11.1111 39.9007 10.8651C39.8049 10.8716 39.7091 10.8781 39.6104 10.8848C38.6101 10.9325 38.6101 10.9325 38.277 10.7527C38.1387 10.6096 38.0352 10.471 37.9348 10.3051C37.8829 10.243 37.831 10.1809 37.7775 10.117C37.6797 9.91562 37.7214 9.8141 37.7775 9.6051Z" fill="white"/>
<path d="M19.8474 0.39864C19.9021 0.398149 19.9569 0.397658 20.0133 0.397153C20.194 0.395923 20.3745 0.396736 20.5551 0.397683C20.6809 0.397494 20.8066 0.397222 20.9323 0.396871C21.1957 0.396458 21.459 0.397057 21.7224 0.398366C22.0598 0.399962 22.3972 0.399043 22.7346 0.397366C22.9942 0.396354 23.2538 0.396676 23.5134 0.397402C23.6378 0.397588 23.7622 0.39736 23.8866 0.396707C24.0606 0.395996 24.2344 0.397081 24.4083 0.39864C24.5567 0.398974 24.5567 0.398974 24.7081 0.399315C24.9588 0.434871 24.9588 0.434871 25.148 0.559912C25.3022 0.750515 25.3175 0.904433 25.3044 1.13707C25.2553 1.35507 25.1374 1.47499 24.9588 1.6249C24.6997 1.70177 24.5072 1.70425 24.2344 1.70507C24.1336 1.70551 24.0328 1.70596 23.9289 1.70642C23.8187 1.70653 23.7085 1.70661 23.5983 1.70666C23.4852 1.70688 23.3721 1.70712 23.2589 1.70736C23.0217 1.70778 22.7844 1.70791 22.5472 1.70787C22.2439 1.70786 21.9406 1.70882 21.6373 1.71002C21.4036 1.71081 21.1698 1.71095 20.9361 1.71091C20.8243 1.71099 20.7125 1.7113 20.6008 1.71184C20.444 1.71253 20.2873 1.71224 20.1305 1.7119C20.0415 1.712 19.9524 1.7121 19.8607 1.71221C19.5941 1.69369 19.3854 1.64831 19.1396 1.5549C18.9605 1.3285 18.9024 1.19337 18.9086 0.916132C19.073 0.467582 19.344 0.399773 19.8474 0.39864Z" fill="white"/>
<path d="M40.6868 3.79526C40.8391 3.87401 40.8391 3.87401 40.9227 4.00527C40.9491 4.25936 40.9472 4.44141 40.8391 4.67903C40.7467 4.88741 40.7757 4.9818 40.8441 5.19529C40.9367 5.32917 40.9367 5.32917 41.0652 5.44905C41.1136 5.4966 41.1619 5.54416 41.2117 5.59315C41.3525 5.71803 41.4938 5.83454 41.6436 5.95027C41.6868 5.98392 41.7299 6.01757 41.7744 6.05223C41.861 6.119 41.9486 6.18468 42.0374 6.24918C42.1588 6.34239 42.1588 6.34239 42.3382 6.52532C42.3357 6.7192 42.3357 6.7192 42.2595 6.87533C42.0723 6.95866 41.9565 6.95464 41.7476 6.9555C41.6741 6.95595 41.6007 6.9564 41.525 6.95686C41.4454 6.95693 41.3659 6.95701 41.2839 6.95709C41.2025 6.95732 41.121 6.95756 41.0371 6.9578C40.8647 6.95815 40.6923 6.95832 40.5199 6.95831C40.2554 6.95846 39.9908 6.95973 39.7262 6.96106C39.559 6.96126 39.3918 6.9614 39.2246 6.96147C39.1053 6.96222 39.1053 6.96222 38.9836 6.96299C38.9101 6.96278 38.8366 6.96256 38.7609 6.96234C38.6961 6.96244 38.6313 6.96254 38.5645 6.96264C38.4063 6.94533 38.4063 6.94533 38.249 6.80533C38.3104 6.31736 38.8709 5.97107 39.2633 5.67437C39.5417 5.45698 39.7991 5.22101 40.0577 4.98529C39.9812 4.94509 39.9812 4.94509 39.9032 4.90408C39.7431 4.77528 39.7431 4.77528 39.6986 4.59618C39.6994 4.05716 39.6994 4.05716 39.9053 3.81276C40.2055 3.69904 40.3747 3.71808 40.6868 3.79526Z" fill="white"/>
<path d="M43.1243 7.50569C43.1129 7.98253 42.8771 8.29662 42.4952 8.62572C42.0729 8.8662 41.6941 8.87258 41.2081 8.87838C41.0909 8.88018 41.0909 8.88018 40.9714 8.88201C40.8065 8.88399 40.6417 8.88536 40.4768 8.88617C40.2258 8.88822 39.9751 8.89473 39.7241 8.90135C38.5546 8.91745 38.5546 8.91745 38.1578 8.69914C37.9973 8.5401 37.8851 8.39574 37.777 8.20571C37.7251 8.13641 37.6732 8.06711 37.6197 7.99571C37.6098 7.80758 37.6098 7.80758 37.6197 7.6457C37.9291 7.59495 38.2249 7.56587 38.5393 7.56132C38.6254 7.55993 38.7115 7.55853 38.8002 7.55709C38.8921 7.55592 38.9841 7.55475 39.0788 7.55355C39.1744 7.55209 39.2699 7.55064 39.3684 7.54914C39.6734 7.54457 39.9785 7.54045 40.2835 7.53632C40.4882 7.53329 40.6929 7.53024 40.8976 7.52716C42.4923 7.50368 42.4923 7.50368 43.1243 7.50569Z" fill="white"/>
<path d="M39.9001 13.1758C40.0184 13.3864 39.9882 13.6028 39.9864 13.8337C39.9863 13.8872 39.9862 13.9408 39.986 13.996C39.9857 14.1129 39.9853 14.2299 39.9846 14.3468C39.9836 14.5345 39.9831 14.7222 39.9827 14.9099C39.9817 15.3782 39.9798 15.8465 39.9779 16.3148C39.976 16.7706 39.9746 17.2264 39.9738 17.6821C39.9737 17.7463 39.9736 17.8105 39.9734 17.8766C39.9723 18.8517 39.9898 19.8252 40.0289 20.7995C40.0618 21.6186 40.0653 22.4365 40.0573 23.256C39.8238 23.256 39.5902 23.256 39.3496 23.256C39.3496 19.9757 39.3496 16.6955 39.3496 13.3158C39.7428 13.1758 39.7428 13.1758 39.9001 13.1758Z" fill="white"/>
<path d="M7.08408 9.03968C7.34619 9.03451 7.60826 9.03089 7.87041 9.02796C7.95015 9.02645 8.02989 9.02495 8.11204 9.0234C8.18507 9.0231 8.25809 9.0228 8.33333 9.02249C8.42892 9.02151 8.42892 9.02151 8.52644 9.02051C8.57756 9.02874 8.62869 9.03698 8.68136 9.04546C8.84621 9.26558 8.86738 9.40673 8.89024 9.66618C8.80484 9.91323 8.61369 10.0462 8.36681 10.1655C8.07864 10.2158 7.79624 10.2129 7.50333 10.2095C7.3795 10.2098 7.3795 10.2098 7.25317 10.21C7.07928 10.21 6.90538 10.209 6.7315 10.2073C6.46482 10.2049 6.19835 10.2058 5.93166 10.2072C5.76256 10.2067 5.59346 10.206 5.42436 10.2051C5.3445 10.2055 5.26463 10.2058 5.18234 10.2062C5.10831 10.2051 5.03428 10.204 4.95801 10.2028C4.8929 10.2024 4.82779 10.202 4.76071 10.2015C4.59222 10.1655 4.59222 10.1655 4.45319 10.0321C4.29156 9.78751 4.3313 9.60593 4.35631 9.32547C4.40821 9.25616 4.46011 9.18686 4.51358 9.11546C4.71083 9.08519 4.71083 9.08519 4.96145 9.07964C5.05427 9.07714 5.14709 9.07463 5.24273 9.07205C5.34271 9.0705 5.44269 9.06894 5.5457 9.06734C5.64735 9.06515 5.749 9.06296 5.85374 9.0607C6.06387 9.05653 6.27393 9.05278 6.48408 9.04987C6.68409 9.04702 6.88409 9.04367 7.08408 9.03968Z" fill="white"/>
<path d="M24.6659 4.06543C24.8807 4.0756 24.8807 4.0756 25.1461 4.21998C25.3525 4.42561 25.3525 4.42561 25.4066 4.67061C25.3402 4.97135 25.2205 5.07284 24.9593 5.26563C24.9204 5.30028 24.9204 5.30028 24.8807 5.33563C24.4606 5.3561 24.0403 5.35761 23.6197 5.36013C23.478 5.36129 23.3362 5.3632 23.1945 5.36588C22.9903 5.36972 22.7861 5.37124 22.5818 5.37227C22.4872 5.37465 22.4872 5.37465 22.3906 5.37708C22.0554 5.37595 21.9295 5.36128 21.6556 5.17146C21.4993 4.98562 21.4993 4.98562 21.4551 4.77561C21.5111 4.50985 21.5967 4.40437 21.8139 4.2156C22.0224 4.17444 22.1859 4.1557 22.3957 4.1508C22.4517 4.14818 22.5077 4.14557 22.5655 4.14288C22.7441 4.13493 22.9228 4.12931 23.1015 4.12372C23.2211 4.11873 23.3407 4.11358 23.4603 4.10827C23.8621 4.09122 24.2641 4.08133 24.6659 4.06543Z" fill="white"/>
<path d="M5.34379 12.5872C5.43091 12.5869 5.43091 12.5869 5.51979 12.5865C5.6426 12.5864 5.76542 12.5868 5.88823 12.5877C6.07551 12.5888 6.26266 12.5877 6.44994 12.5863C6.56943 12.5865 6.68892 12.5867 6.80841 12.5872C6.89198 12.5865 6.89198 12.5865 6.97724 12.5859C7.35443 12.5906 7.62388 12.6535 7.8952 12.8951C7.9336 13.1913 7.94004 13.3331 7.73253 13.5736C7.44491 13.7751 7.29261 13.7801 6.92975 13.7816C6.87557 13.7819 6.82139 13.7822 6.76557 13.7826C6.65143 13.7828 6.53728 13.7822 6.42316 13.7807C6.24943 13.7788 6.07611 13.7807 5.9024 13.7829C5.79104 13.7827 5.67969 13.7822 5.56834 13.7816C5.46789 13.7812 5.36744 13.7808 5.26395 13.7804C4.90045 13.7212 4.7722 13.6161 4.5138 13.3851C4.43673 13.1734 4.47663 13.053 4.5138 12.8251C4.70785 12.546 5.01148 12.5846 5.34379 12.5872Z" fill="white"/>
<path d="M43.6212 38.1398C43.7185 38.1372 43.8157 38.1346 43.916 38.1319C44.7168 38.1249 44.7168 38.1249 44.9587 38.3274C45.1332 38.5767 45.1429 38.7171 45.0908 39.0061C44.9631 39.1935 44.9631 39.1935 44.7762 39.3561C44.5361 39.4014 44.5361 39.4014 44.2577 39.4026C44.1572 39.403 44.0568 39.4035 43.9533 39.4039C43.9012 39.4032 43.8491 39.4025 43.7954 39.4017C43.6364 39.3998 43.4777 39.4017 43.3187 39.4039C43.2182 39.4035 43.1177 39.403 43.0142 39.4026C42.9223 39.4022 42.8305 39.4018 42.7358 39.4014C42.4957 39.3561 42.4957 39.3561 42.311 39.1913C42.1598 38.9755 42.1025 38.841 42.1025 38.5861C42.4913 38.0491 42.9599 38.1465 43.6212 38.1398Z" fill="white"/>
<path d="M41.6743 40.3662C41.7402 40.3654 41.806 40.3646 41.8739 40.3638C42.1948 40.3672 42.3762 40.3842 42.6567 40.533C42.8097 40.6855 42.8097 40.6855 42.8539 40.9262C42.8006 41.2265 42.7508 41.3238 42.4951 41.5256C42.2208 41.5801 41.9544 41.5776 41.6743 41.5737C41.6003 41.5756 41.5262 41.5776 41.4499 41.5796C40.9232 41.5779 40.9232 41.5779 40.7061 41.435C40.552 41.2756 40.4577 41.1293 40.3965 40.9262C40.4632 40.7156 40.5826 40.6152 40.7722 40.4802C41.0579 40.3381 41.3548 40.358 41.6743 40.3662Z" fill="white"/>
<path d="M46.8206 36.136C46.9779 36.346 46.9779 36.346 46.9681 36.5866C46.8935 36.8567 46.8292 36.9496 46.5847 37.116C46.3077 37.1982 46.0525 37.2042 45.7639 37.2079C45.6084 37.2118 45.6084 37.2118 45.4497 37.2158C45.1692 37.186 45.1692 37.186 44.9797 37.0534C44.755 36.7885 44.7439 36.6081 44.776 36.276C44.9202 36.0954 45.0236 36.0171 45.2577 35.9435C45.8357 35.8988 46.3038 35.8772 46.8206 36.136Z" fill="white"/>
<path d="M38.3127 40.3883C38.3687 40.3868 38.4248 40.3854 38.4825 40.3839C38.841 40.3815 39.0626 40.423 39.3498 40.6158C39.4284 40.6858 39.4284 40.6858 39.4579 40.9133C39.4284 41.1758 39.4284 41.1758 39.2745 41.3647C38.9505 41.5828 38.7177 41.5757 38.3226 41.5652C38.2279 41.5663 38.2279 41.5663 38.1314 41.5675C37.8324 41.5642 37.6698 41.5582 37.4235 41.3986C37.2552 41.1811 37.2266 41.0183 37.2266 40.7558C37.5363 40.3945 37.8314 40.3913 38.3127 40.3883Z" fill="white"/>
<path d="M39.9004 38.1221C39.9554 38.1198 40.0103 38.1176 40.0669 38.1152C40.2933 38.1149 40.4749 38.1275 40.6562 38.2547C40.8417 38.4423 40.922 38.552 40.9276 38.8046C40.8337 39.0308 40.7407 39.1366 40.5295 39.2859C40.2587 39.3662 40.0334 39.3752 39.7481 39.3821C39.6035 39.3873 39.6035 39.3873 39.456 39.3925C39.1927 39.3559 39.1927 39.3559 39.0035 39.197C38.8146 38.9089 38.8252 38.7759 38.8782 38.4458C39.1819 38.1526 39.4714 38.1186 39.9004 38.1221Z" fill="white"/>
<path d="M25.3135 7.08496C25.6079 7.15985 25.7637 7.24639 25.9819 7.43497C26.1078 7.6591 26.0998 7.89178 26.0606 8.13498C25.9195 8.33169 25.8232 8.45065 25.5887 8.55499C25.2155 8.60068 24.961 8.60395 24.6451 8.41062C24.4568 8.16443 24.4092 8.01232 24.4092 7.71498C24.5838 7.34359 24.847 7.08496 25.3135 7.08496Z" fill="white"/>
<path d="M42.8103 35.8157C43.1164 35.8948 43.338 36.0433 43.5184 36.2764C43.5362 36.5785 43.4763 36.7181 43.2874 36.9677C43.0678 37.1691 42.9359 37.2007 42.6288 37.2127C42.3274 37.211 42.274 37.1962 42.0243 37.0202C41.8608 36.8292 41.7968 36.7378 41.749 36.5039C41.7998 36.2102 41.9165 36.1133 42.1766 35.9368C42.3964 35.8279 42.5603 35.7969 42.8103 35.8157Z" fill="white"/>
<path d="M27.004 19.7554C27.3017 19.9414 27.454 20.1484 27.5249 20.4642C27.4425 20.8019 27.2414 20.9679 26.9253 21.1554C26.6162 21.1921 26.4751 21.1658 26.1979 21.0329C25.9101 20.8233 25.8414 20.7142 25.7949 20.3898C25.8315 20.1238 25.9317 20.0154 26.139 19.8254C26.4169 19.7017 26.7022 19.7005 27.004 19.7554Z" fill="#F6F6F8"/>
<path d="M17.3312 18.6358C17.6123 18.8425 17.7828 18.9942 17.8325 19.3183C17.7918 19.6324 17.6696 19.7543 17.4098 19.9658C17.1395 20.049 17.1395 20.049 16.8594 20.0358C16.6215 19.9145 16.4333 19.7672 16.3089 19.5458C16.2817 19.335 16.2635 19.1893 16.3089 18.9858C16.616 18.6658 16.862 18.5599 17.3312 18.6358Z" fill="#F4F7F9"/>
<path d="M45.4046 11.3561C45.6454 11.4698 45.6454 11.4698 45.7978 11.6361C45.8528 11.9355 45.8374 12.0721 45.6503 12.3274C45.4213 12.5312 45.3574 12.5434 45.0262 12.5724C44.7543 12.5688 44.6998 12.548 44.4659 12.3974C44.2831 12.1706 44.2186 12.0551 44.225 11.7761C44.542 11.2604 44.7944 11.2371 45.4046 11.3561Z" fill="white"/>
<path d="M15.9997 11.1279C16.3053 11.2437 16.5166 11.3888 16.7025 11.6354C16.7222 11.8148 16.7222 11.8148 16.6239 11.9854C16.4174 12.1867 16.4174 12.1867 16.152 12.3355C15.8277 12.3405 15.6508 12.2906 15.3706 12.1473C15.2084 11.9854 15.2084 11.9854 15.1494 11.7842C15.225 11.5039 15.3532 11.3933 15.6068 11.2212C15.7589 11.1454 15.7589 11.1454 15.9997 11.1279Z" fill="#EFF3F8"/>
<path d="M21.1056 11.0186C21.4364 11.0983 21.6185 11.2472 21.8133 11.4954C21.8723 11.6704 21.8723 11.6704 21.8133 11.8454C21.6165 12.0963 21.4416 12.2473 21.1006 12.3092C20.8099 12.2541 20.6778 12.1801 20.4765 11.9855C20.3831 11.7886 20.3831 11.7886 20.3978 11.5654C20.5725 11.2854 20.7545 11.1032 21.1056 11.0186Z" fill="#F0F4F9"/>
<path d="M18.5112 9.73242C18.8662 9.85752 19.0666 10.0309 19.2337 10.3362C19.2132 10.586 19.0957 10.6888 18.8903 10.853C18.6468 10.9935 18.475 10.986 18.1967 10.9356C17.969 10.7589 17.8946 10.6435 17.8379 10.3799C17.9092 10.0342 18.0811 9.75635 18.5112 9.73242Z" fill="#F1F4F6"/>
<path d="M39.9001 13.1752C39.6642 13.3152 39.6642 13.3152 39.3496 13.3152C39.3553 13.3701 39.361 13.4249 39.3668 13.4814C39.4221 14.1162 39.4345 14.7481 39.4332 15.3846C39.4331 15.4314 39.4331 15.4782 39.433 15.5265C39.4313 16.9775 39.4103 18.4285 39.3918 19.8794C39.387 20.2615 39.3823 20.6436 39.3776 21.0258C39.3684 21.769 39.3591 22.5122 39.3496 23.2554C39.3237 23.2554 39.2977 23.2554 39.271 23.2554C39.2587 22.3442 39.2471 21.433 39.2361 20.5218C39.2311 20.0984 39.2258 19.675 39.22 19.2515C39.1925 17.2242 39.188 15.2015 39.271 13.1752C39.5145 13.1137 39.6568 13.1056 39.9001 13.1752Z" fill="white"/>
<path d="M18.5166 11.9062C18.8084 12.0571 19.0117 12.2353 19.1506 12.51C19.1408 12.685 19.1408 12.685 18.9835 12.8863C18.7476 13.035 18.7476 13.035 18.4674 13.0438C18.1485 12.9509 18.0472 12.873 17.8826 12.615C17.8334 12.44 17.8334 12.44 17.8826 12.265C18.2528 11.9205 18.2528 11.9205 18.5166 11.9062Z" fill="#E9ECEE"/>
<path d="M36.9908 15.6953C37.0167 15.6953 37.0427 15.6953 37.0694 15.6953C37.0609 16.2656 37.052 16.8359 37.0427 17.4062C37.0385 17.6711 37.0343 17.9361 37.0303 18.2011C37.0135 19.327 36.9967 20.4516 36.9122 21.5754C36.8343 21.6101 36.8343 21.6101 36.7549 21.6454C36.7615 20.911 36.769 20.1765 36.7775 19.4421C36.7814 19.101 36.7851 18.76 36.7881 18.419C36.791 18.0899 36.7946 17.7609 36.7988 17.4318C36.8002 17.3062 36.8014 17.1806 36.8023 17.055C36.8037 16.8792 36.8059 16.7034 36.8084 16.5276C36.8086 16.4756 36.8088 16.4236 36.809 16.37C36.8137 16.1112 36.8301 15.9153 36.9908 15.6953Z" fill="#DEDEDD"/>
<path d="M36.8331 15.5557C36.9109 15.5557 36.9888 15.5557 37.069 15.5557C37.0435 15.6146 37.0181 15.6736 36.9919 15.7343C36.9057 15.9938 36.8904 16.2067 36.8879 16.4769C36.8872 16.5252 36.8866 16.5736 36.8859 16.6233C36.8839 16.7823 36.8829 16.9412 36.8819 17.1001C36.8807 17.2117 36.8793 17.3233 36.8779 17.4349C36.8743 17.7287 36.8716 18.0225 36.8691 18.3162C36.865 18.7843 36.8598 19.2524 36.8543 19.7205C36.8525 19.8825 36.8512 20.0444 36.85 20.2064C36.844 20.8291 36.814 21.445 36.7545 22.0658C36.7285 22.0658 36.7026 22.0658 36.6758 22.0658C36.6722 21.31 36.6694 20.5542 36.6677 19.7984C36.6669 19.4474 36.6657 19.0965 36.664 18.7455C36.6622 18.4064 36.6613 18.0674 36.6609 17.7283C36.6606 17.5993 36.66 17.4703 36.6592 17.3413C36.658 17.1598 36.6579 16.9784 36.658 16.797C36.6574 16.7443 36.6568 16.6915 36.6562 16.6372C36.6579 16.2618 36.7277 15.9188 36.8331 15.5557Z" fill="#DEDEDD"/>
<path d="M36.9909 16.1152C37.0168 16.1152 37.0428 16.1152 37.0695 16.1152C37.0714 16.7518 37.0728 17.3884 37.0736 18.025C37.074 18.3208 37.0746 18.6165 37.0755 18.9122C37.0763 19.1986 37.0768 19.485 37.077 19.7714C37.0771 19.8796 37.0774 19.9879 37.0778 20.0961C37.0807 20.8485 37.0493 21.5948 36.9909 22.3454C36.8742 22.2562 36.8742 22.2562 36.755 22.1354C36.7353 21.8816 36.7353 21.8816 36.755 21.6454C36.7939 21.6107 36.7939 21.6107 36.8336 21.5754C36.8524 21.3965 36.8655 21.2196 36.8751 21.0402C36.8783 20.9822 36.8816 20.9241 36.8849 20.8643C36.9298 19.99 36.9397 19.1145 36.9541 18.2394C36.9581 17.9991 36.9625 17.7588 36.9668 17.5184C36.9751 17.0507 36.9831 16.583 36.9909 16.1152Z" fill="#DEDEDD"/>
<path d="M36.2432 21.5055L37.0295 22.6605L37.0334 22.4855L37.0689 16.2904V15.7304L37.1082 15.3804L37.2261 14.9954L37.3834 14.6104L36.5184 16.1504L36.4791 20.4905L36.2432 21.5055Z" fill="white"/>
<path d="M42.2588 13.1758V14.0158H42.8879V13.1758H42.2588Z" fill="white"/>
<g clip-path="url(#clip0_437_1934)">
<path d="M48.9867 46.1796C49.044 46.0834 48.9146 45.9986 48.8019 46.0454C48.7029 46.0864 48.6003 46.1209 48.4949 46.1484C48.3764 46.0303 48.219 45.9466 48.0438 45.9086C47.8687 45.8706 47.6843 45.8802 47.5156 45.936C47.347 45.9918 47.2021 46.0912 47.1007 46.2207C46.9993 46.3502 46.9462 46.5035 46.9487 46.66V46.7163C46.9487 46.7799 46.8902 46.8323 46.8169 46.83C46.5163 46.8203 46.2211 46.7547 45.9515 46.6371C45.7139 46.5334 45.5019 46.3918 45.3263 46.2203C45.2565 46.1522 45.1291 46.166 45.1001 46.2536C44.9643 46.6646 44.7986 47.6258 45.943 48.1805C46.0356 48.2254 46.0472 48.3408 45.9536 48.3841C45.696 48.5032 45.4147 48.5785 45.1251 48.606C45.0402 48.614 45.0126 48.7169 45.0913 48.7457C46.7952 49.368 48.7192 48.5042 48.7192 46.6549C48.719 46.6074 48.7137 46.56 48.7034 46.5134C48.8181 46.4153 48.9135 46.3026 48.9867 46.1796Z" stroke="white" stroke-width="0.753488" stroke-linecap="round" stroke-linejoin="round"/>
</g>
<defs>
<clipPath id="clip0_437_1934">
<rect width="5.99519" height="5.19751" fill="white" transform="translate(44.0049 44.8027)"/>
</clipPath>
</defs>
</svg>
