<svg width="20" height="20" viewBox="0 0 20 20" fill="none" xmlns="http://www.w3.org/2000/svg">
<path d="M15.6075 9.01226C15.6075 12.0163 12.9807 14.7285 11.3001 16.1563C10.4993 16.8367 9.35777 16.8367 8.55697 16.1563C6.87638 14.7285 4.24951 12.0163 4.24951 9.01226C4.24951 7.50609 4.84783 6.06162 5.91285 4.9966C6.97788 3.93157 8.42235 3.33325 9.92852 3.33325C11.4347 3.33325 12.8792 3.93157 13.9442 4.9966C15.0092 6.06162 15.6075 7.50609 15.6075 9.01226Z" stroke="white" stroke-width="1.5" stroke-linecap="round" stroke-linejoin="round"/>
<path d="M9.92852 10.9053C10.974 10.9053 11.8215 10.0577 11.8215 9.01226C11.8215 7.96678 10.974 7.11926 9.92852 7.11926C8.88304 7.11926 8.03552 7.96678 8.03552 9.01226C8.03552 10.0577 8.88304 10.9053 9.92852 10.9053Z" stroke="white" stroke-width="1.5" stroke-linecap="round" stroke-linejoin="round"/>
</svg>
