<svg width="18" height="18" viewBox="0 0 18 18" fill="none" xmlns="http://www.w3.org/2000/svg">
<path d="M14.0469 8.11111C14.0469 10.8148 11.6827 13.2558 10.1702 14.5408C9.44949 15.1531 8.42214 15.1531 7.70142 14.5408C6.18889 13.2558 3.82471 10.8148 3.82471 8.11111C3.82471 6.75556 4.3632 5.45553 5.32172 4.49701C6.28023 3.53849 7.58027 3 8.93582 3C10.2914 3 11.5914 3.53849 12.5499 4.49701C13.5084 5.45553 14.0469 6.75556 14.0469 8.11111Z" stroke="black" stroke-width="1.5" stroke-linecap="round" stroke-linejoin="round"/>
<path d="M8.93582 9.81481C9.87674 9.81481 10.6395 9.05204 10.6395 8.11111C10.6395 7.17018 9.87674 6.40741 8.93582 6.40741C7.99489 6.40741 7.23211 7.17018 7.23211 8.11111C7.23211 9.05204 7.99489 9.81481 8.93582 9.81481Z" stroke="black" stroke-width="1.5" stroke-linecap="round" stroke-linejoin="round"/>
</svg>
