<svg width="12" height="12" viewBox="0 0 12 12" fill="none" xmlns="http://www.w3.org/2000/svg">
<g clip-path="url(#clip0_215_1678)">
<path fill-rule="evenodd" clip-rule="evenodd" d="M0 3.3741V5.61158H0.718351V6.37704H1.48381V7.1425H2.96762V9.39176H2.24926V10.1572H1.48381V11.641H6.73602V10.9227H7.50147V10.1572H8.24338V10.9227V11.641H12V6.37704H11.2816V5.65869H12V2.65574H11.2816V1.89029H9.75074V2.65574H8.98528V1.89029V1.10128V0.359375H7.50147V1.12483H6.73602V1.89029H5.97056V1.12483H3.01472V1.89029H2.24926V1.12483H1.48381V3.3741H0Z" fill="#C8DECB"/>
<path fill-rule="evenodd" clip-rule="evenodd" d="M3.01472 1.89029H5.97056H6.73602H7.50147V1.12483H8.26693V2.65574V5.61158V5.65869H8.98528V6.32993V7.86085V7.90795H9.75074V7.1425H11.2816V6.37704V5.65869V2.65574H12V5.65869H11.2816H11.2581H10.5162H9.75074H8.98528V5.61158V4.84613H9.75074V3.4212H8.98528V2.65574V1.12483V0.359375H8.26693H7.50147V1.12483H6.73602V1.89029V2.65574H5.97056V1.89029V1.12483H3.01472V1.89029V2.65574H2.24926V3.3741H1.48381V1.12483H2.24926V1.89029H3.01472ZM8.98528 7.90795H8.24338V7.1425H7.50147H6.73602V6.37704H7.50147V5.61158H6.73602H6.01766V4.90501H6.73602V4.13955H7.50147V2.65574H8.26693H8.98528H9.75074H11.2816V1.89029H9.75074V2.65574V3.4212H10.5162V5.65869V6.37704H11.2816H12V10.8756V11.641H11.2816H8.98528H8.26693H8.24338V10.1572H7.50147V10.9227H6.73602V11.641H2.24926H1.48381V10.9227V10.1572H2.24926V9.39176H2.96762V7.1425H1.48381V6.37704H0.718351V5.61158H0V4.90501V4.13955V3.3741H0.718351H1.48381V4.13955H0.718351V4.90501H2.24926V4.13955H3.01472V4.90501H3.73307V4.13955V3.3741H5.22866H6.01766V4.13955H5.22866V4.90501H3.73307V5.61158H1.48381V6.37704H2.96762H3.73307H4.48675V7.1425H3.73307V9.39176V10.1572H2.96762H2.24926V10.9227H3.73307V10.1572H4.48675H5.25221V8.6263H6.01766V7.90795H5.25221H4.48675V8.6263V10.1572V10.9227H6.73602V10.1572H5.97056V9.39176H6.73602V8.6263H7.50147V9.39176H8.24338H8.98528V7.90795ZM9.75074 9.39176V7.90795H10.4926V8.6263H11.2816V10.8756H8.98528V10.1572H10.5162V9.39176H9.75074Z" fill="#418663"/>
</g>
<defs>
<clipPath id="clip0_215_1678">
<rect width="12" height="12" fill="white"/>
</clipPath>
</defs>
</svg>
