<svg width="20" height="20" viewBox="0 0 20 20" fill="none" xmlns="http://www.w3.org/2000/svg">
<path d="M7.25809 13.0943C4.38047 10.4608 3.62433 7.7333 3.46801 6.02662C3.37269 4.986 4.19132 4.18803 5.22378 4.02679L6.41327 3.84102C7.58434 3.65813 8.68901 4.43822 8.90839 5.603L9.09831 6.61139C9.18462 7.06966 8.93085 7.52409 8.4954 7.69099C7.99779 7.88172 7.754 8.43879 8.00814 8.9072C8.31229 9.46777 8.77975 10.1943 9.39598 10.7582C10.0122 11.3222 10.7772 11.7236 11.3625 11.977C11.8515 12.1887 12.3849 11.8966 12.5308 11.3841C12.6586 10.9356 13.0888 10.6427 13.5529 10.6881L14.5741 10.7881C15.7538 10.9037 16.6285 11.9351 16.5498 13.1177L16.47 14.319C16.4006 15.3616 15.6782 16.2476 14.6332 16.2447C12.9194 16.2398 10.1357 15.7278 7.25809 13.0943Z" stroke="#131214" stroke-opacity="0.5" stroke-width="1.5"/>
</svg>
