<svg width="26" height="26" viewBox="0 0 26 26" fill="none" xmlns="http://www.w3.org/2000/svg">
<path d="M10.8328 12.4583L11.3142 17.5138M15.1661 12.4583L14.6846 17.5138M4.71191 8.58482H6.67412M6.67412 8.58482C11.7829 8.58482 21.2693 8.58482 21.2693 8.58482M6.67412 8.58482L7.37267 18.6418C7.49099 20.3452 8.90733 21.6666 10.6149 21.6666H15.408C17.1056 21.6666 18.5173 20.36 18.6483 18.6674L19.4289 8.58482C19.4289 8.58482 11.1443 8.58482 6.67412 8.58482ZM9.61757 8.58482V6.49992C9.61757 5.3033 10.5876 4.33325 11.7842 4.33325H14.3188C15.5155 4.33325 16.4855 5.3033 16.4855 6.49992V8.58482" stroke="#131214" stroke-opacity="0.5" stroke-width="1.5" stroke-linecap="round" stroke-linejoin="round"/>
</svg>
