<?xml version="1.0" standalone="no"?>
<!DOCTYPE svg PUBLIC "-//W3C//DTD SVG 20010904//EN"
 "http://www.w3.org/TR/2001/REC-SVG-20010904/DTD/svg10.dtd">
<svg version="1.0" xmlns="http://www.w3.org/2000/svg"
 width="204.000000pt" height="192.000000pt" viewBox="0 0 204.000000 192.000000"
 preserveAspectRatio="xMidYMid meet">

<g transform="translate(0.000000,192.000000) scale(0.100000,-0.100000)"
fill="#000000" stroke="none">
<path d="M925 1910 c-57 -12 -137 -44 -190 -75 -119 -69 -226 -230 -248 -374
-11 -69 -12 -71 -47 -82 -167 -55 -299 -190 -352 -362 -17 -57 -20 -87 -16
-182 4 -110 6 -117 46 -198 66 -134 157 -222 283 -273 50 -20 64 -23 70 -12
19 30 8 44 -57 72 -119 52 -226 172 -265 297 -24 76 -25 205 -3 280 53 181
217 317 415 344 44 6 45 7 41 36 -4 28 -7 30 -34 25 l-30 -6 7 47 c29 192 172
346 371 398 105 27 206 14 321 -42 133 -65 236 -207 258 -356 l7 -47 -30 6
c-27 5 -30 3 -34 -25 -4 -29 -3 -30 41 -36 198 -27 362 -163 415 -344 22 -75
21 -204 -3 -280 -39 -125 -146 -245 -265 -297 -64 -28 -76 -42 -57 -72 12 -19
107 19 179 72 79 58 126 116 175 214 39 80 41 88 45 197 4 95 1 125 -16 182
-53 172 -185 307 -352 362 -35 11 -36 13 -47 82 -23 145 -129 305 -249 375
-112 66 -273 97 -379 74z"/>
<path d="M947 1770 c-19 -15 -37 -54 -69 -151 l-43 -130 -72 -57 c-40 -31 -73
-61 -73 -66 0 -5 7 -17 16 -27 15 -17 21 -15 98 48 l81 65 42 126 c24 69 47
130 53 136 7 7 10 -48 10 -167 l0 -177 -43 0 c-39 0 -48 -5 -107 -65 l-64 -65
22 -22 22 -22 58 57 58 57 84 0 84 0 58 -57 58 -57 22 22 22 22 -64 65 c-59
60 -68 65 -107 65 l-43 0 0 177 c0 119 3 174 10 167 6 -6 29 -67 53 -136 l42
-126 81 -65 c77 -63 83 -65 98 -48 9 10 16 22 16 27 0 6 -33 36 -73 67 l-73
57 -42 130 c-50 150 -66 170 -142 170 -32 0 -55 -6 -73 -20z"/>
<path d="M294 1137 c-3 -8 -3 -56 -2 -108 l3 -94 43 -3 42 -3 0 -198 c0 -140
3 -200 12 -209 9 -9 70 -12 215 -12 190 0 203 1 213 19 6 12 10 98 10 210 l0
190 43 3 42 3 0 105 0 105 -120 0 -119 0 -10 -33 c-22 -76 -92 -77 -122 -2
l-16 40 -114 0 c-86 0 -116 -3 -120 -13z m196 -57 c0 -22 63 -80 95 -86 46 -8
103 20 123 63 16 33 16 33 84 33 l68 0 0 -49 0 -50 -42 -3 -43 -3 -5 -205 -5
-205 -160 0 -160 0 -5 205 -5 205 -42 3 -43 3 0 50 0 49 70 0 c39 0 70 -4 70
-10z"/>
<path d="M512 863 c2 -22 9 -29 31 -31 24 -3 27 0 27 27 0 28 -3 31 -31 31
-27 0 -30 -3 -27 -27z"/>
<path d="M640 859 c0 -27 3 -30 28 -27 21 2 28 9 30 31 3 24 0 27 -27 27 -28
0 -31 -3 -31 -31z"/>
<path d="M574 815 c-10 -25 4 -45 31 -45 21 0 25 5 25 30 0 25 -4 30 -25 30
-14 0 -28 -7 -31 -15z"/>
<path d="M538 763 c-22 -3 -28 -10 -28 -29 0 -20 5 -24 30 -24 27 0 30 3 30
30 0 17 -1 29 -2 29 -2 -1 -15 -4 -30 -6z"/>
<path d="M640 735 c0 -21 5 -25 30 -25 25 0 30 4 30 25 0 21 -5 25 -30 25 -25
0 -30 -4 -30 -25z"/>
<path d="M572 673 c2 -22 9 -29 31 -31 24 -3 27 0 27 27 0 28 -3 31 -31 31
-27 0 -30 -3 -27 -27z"/>
<path d="M1468 1103 l-3 -48 -128 -3 -128 -3 3 -27 c3 -25 7 -27 56 -30 46 -3
52 -5 52 -26 0 -42 41 -143 85 -211 25 -37 45 -70 45 -72 0 -8 -44 -42 -97
-75 -56 -34 -61 -43 -40 -71 11 -16 17 -14 72 19 33 20 71 47 85 60 l26 24 34
-28 c39 -32 141 -95 145 -90 8 9 26 50 23 52 -58 36 -99 63 -125 82 l-31 24
44 67 c45 69 82 153 91 211 5 31 7 32 54 32 48 0 49 1 49 30 l0 30 -125 0
-125 0 0 50 c0 49 -1 50 -29 50 -28 0 -30 -2 -33 -47z m147 -145 c-8 -46 -86
-199 -107 -212 -14 -8 -21 -6 -33 9 -27 36 -84 159 -91 198 l-6 37 122 0 122
0 -7 -32z"/>
<path d="M1025 784 c-77 -15 -116 -38 -126 -75 -4 -13 -7 -58 -8 -99 -1 -57 4
-85 19 -115 11 -21 18 -40 16 -43 -3 -2 -83 -3 -179 -2 -149 1 -177 -2 -191
-15 -28 -28 4 -109 57 -149 23 -17 46 -22 123 -24 l94 -4 0 -129 0 -129 30 0
31 0 -3 158 -3 157 -112 5 c-101 5 -114 7 -137 29 -15 14 -23 28 -18 33 4 4
88 9 187 10 l180 3 3 44 c2 33 -2 52 -17 72 -17 23 -21 43 -21 103 0 87 10 99
93 111 l47 7 0 -96 c0 -82 -3 -101 -21 -125 -15 -20 -19 -39 -17 -72 l3 -44
180 -3 c99 -1 183 -6 187 -10 5 -5 -3 -19 -18 -33 -23 -22 -36 -24 -137 -29
l-112 -5 -3 -157 -3 -158 31 0 30 0 0 129 0 129 94 4 c77 2 100 7 123 24 53
40 85 121 57 149 -14 13 -42 16 -191 15 -96 -1 -176 0 -179 2 -2 3 5 22 16 43
16 32 20 59 20 153 0 62 -5 122 -10 133 -12 22 -20 22 -115 3z"/>
</g>
</svg>
