<?xml version="1.0" standalone="no"?>
<!DOCTYPE svg PUBLIC "-//W3C//DTD SVG 20010904//EN"
 "http://www.w3.org/TR/2001/REC-SVG-20010904/DTD/svg10.dtd">
<svg version="1.0" xmlns="http://www.w3.org/2000/svg"
 width="204.000000pt" height="192.000000pt" viewBox="0 0 204.000000 192.000000"
 preserveAspectRatio="xMidYMid meet">

<g transform="translate(0.000000,192.000000) scale(0.100000,-0.100000)"
fill="#000000" stroke="none">
<path d="M425 1639 c-203 -154 -375 -287 -382 -295 -27 -36 14 -58 53 -29 10
8 22 15 27 15 4 0 7 -209 7 -464 l0 -465 -42 -3 c-38 -3 -43 -6 -43 -28 l0
-25 788 -3 788 -2 -3 27 c-3 25 -7 28 -45 31 l-43 3 0 465 c0 259 4 464 9 464
5 0 14 -7 21 -15 18 -22 54 -15 58 11 2 16 -21 38 -105 101 -59 44 -231 173
-382 287 -223 168 -279 206 -305 205 -25 0 -106 -57 -401 -280z m733 -20 l311
-234 1 -492 0 -493 -50 0 -50 0 0 138 c0 134 -1 141 -30 199 -17 35 -46 73
-66 88 -35 27 -35 27 -15 42 11 7 33 35 48 61 58 99 27 236 -68 299 -48 32
-136 42 -194 23 -72 -24 -135 -99 -150 -182 -10 -54 18 -141 60 -183 19 -19
35 -36 35 -39 0 -16 -38 -11 -78 10 -41 23 -55 25 -109 20 -40 -4 -63 -3 -63
4 0 5 -18 23 -40 39 l-39 28 31 29 c103 97 85 274 -37 349 -42 26 -58 30 -114
29 -74 -1 -110 -15 -158 -66 -82 -85 -82 -216 -1 -301 l38 -40 -41 -36 c-23
-19 -52 -58 -65 -85 -22 -48 -24 -63 -24 -238 l0 -188 -50 0 -50 0 0 493 0
492 313 237 c171 130 319 235 328 234 9 -2 156 -109 327 -237z m-533 -348
c137 -79 75 -295 -85 -295 -83 0 -160 77 -160 159 0 32 33 107 55 125 49 40
131 45 190 11z m559 -91 c62 -31 81 -63 81 -140 0 -75 -17 -106 -76 -139 -100
-57 -229 20 -229 136 0 122 116 196 224 143z m-542 -299 c25 -16 48 -34 52
-39 3 -6 -4 -30 -16 -53 -32 -63 -29 -129 10 -185 l31 -43 -29 -31 c-26 -28
-50 -83 -50 -117 0 -10 -36 -13 -146 -13 l-145 0 3 193 c3 191 3 194 30 234
55 84 174 108 260 54z m260 -99 c57 -52 43 -143 -25 -175 -45 -22 -65 -21
-105 3 -103 63 -40 227 78 203 14 -3 37 -17 52 -31z m310 7 c21 -11 50 -38 65
-61 26 -39 28 -48 32 -185 l3 -143 -146 0 c-140 0 -146 1 -146 20 0 32 -25 82
-54 112 l-28 27 29 37 c24 32 28 47 30 108 1 60 5 73 22 85 52 34 126 34 193
0z m-334 -273 c37 -19 61 -47 72 -85 l9 -31 -130 0 c-97 0 -129 3 -129 13 0
28 38 81 71 99 40 22 71 23 107 4z"/>
</g>
</svg>
