<?xml version="1.0" standalone="no"?>
<!DOCTYPE svg PUBLIC "-//W3C//DTD SVG 20010904//EN"
 "http://www.w3.org/TR/2001/REC-SVG-20010904/DTD/svg10.dtd">
<svg version="1.0" xmlns="http://www.w3.org/2000/svg"
 width="512.000000pt" height="512.000000pt" viewBox="0 0 512.000000 512.000000"
 preserveAspectRatio="xMidYMid meet">

<g transform="translate(0.000000,512.000000) scale(0.100000,-0.100000)"
fill="#000000" stroke="none">
<path d="M3915 5095 c-471 -109 -931 -467 -1292 -1005 -88 -132 -103 -161
-103 -201 0 -28 32 -237 45 -296 5 -23 4 -23 -90 -23 -142 0 -149 -6 -210
-165 -66 -174 -113 -357 -134 -522 -13 -99 -6 -121 51 -180 l41 -42 -25 -10
c-14 -5 -35 -22 -48 -38 -26 -34 -23 -81 15 -202 51 -160 155 -287 286 -349
64 -30 77 -41 74 -57 -3 -11 -18 -154 -36 -318 -33 -321 -32 -340 15 -372 46
-33 127 -10 146 40 5 12 23 161 41 331 18 170 33 310 34 312 1 1 44 7 96 13
298 33 501 188 649 494 68 140 107 257 161 485 43 182 47 234 22 270 -14 20
-14 25 -2 29 7 2 25 16 39 30 21 21 36 66 79 231 79 307 170 651 287 1082 71
262 103 395 98 412 -3 15 -20 37 -36 51 -37 31 -70 31 -203 0z m-151 -267 c-4
-7 -38 -49 -74 -93 -533 -639 -932 -1482 -1098 -2317 l-37 -186 -35 18 c-47
24 -102 86 -135 149 -14 28 -25 53 -25 56 0 3 27 5 61 5 68 0 111 19 128 57
27 59 15 81 -116 214 l-106 107 8 58 c10 87 49 246 85 349 17 50 34 98 37 108
5 15 20 17 125 17 160 0 198 20 198 104 0 19 -13 117 -30 218 l-30 183 65 97
c103 156 191 264 325 402 192 197 358 322 555 417 114 55 109 53 99 37z m17
-439 c-27 -101 -93 -350 -146 -554 -53 -203 -98 -372 -101 -377 -3 -4 -65 -42
-140 -84 -145 -82 -174 -109 -174 -158 0 -68 58 -106 159 -106 33 0 62 -4 65
-8 7 -11 -65 -287 -99 -382 -82 -224 -199 -381 -339 -452 -89 -45 -246 -75
-246 -46 0 6 14 79 31 162 119 583 326 1115 630 1621 128 213 392 585 406 572
2 -3 -18 -87 -46 -188z"/>
<path d="M1708 1550 c-95 -15 -176 -39 -328 -97 -255 -97 -408 -139 -625 -168
-65 -9 -131 -23 -146 -30 -55 -29 -62 -110 -13 -156 33 -31 93 -30 294 5 177
30 340 77 545 156 85 33 185 68 223 76 98 24 250 21 332 -5 165 -52 326 -193
424 -372 20 -36 36 -68 36 -70 0 -2 -30 24 -66 58 -175 165 -350 237 -574 237
-151 0 -234 -19 -455 -104 -256 -99 -450 -148 -686 -175 -30 -3 -67 -14 -82
-23 -22 -14 -488 -610 -564 -721 -37 -54 -26 -113 27 -144 26 -16 212 -17
2510 -17 2298 0 2484 1 2510 17 53 31 64 90 27 144 -76 111 -542 707 -564 721
-15 9 -52 20 -82 23 -236 27 -430 76 -686 175 -221 85 -304 104 -455 104 -224
0 -399 -72 -574 -237 -36 -34 -66 -60 -66 -58 0 2 16 34 36 70 98 179 259 320
424 372 81 26 235 29 331 6 37 -9 145 -46 240 -82 173 -66 401 -135 446 -135
85 0 132 94 78 158 -20 23 -43 34 -132 57 -59 15 -198 61 -308 102 -264 98
-339 117 -485 116 -168 0 -291 -37 -434 -131 -82 -53 -227 -195 -271 -264 -17
-27 -32 -48 -35 -48 -3 0 -18 21 -35 48 -44 69 -189 211 -271 264 -129 84
-249 124 -399 132 -49 3 -116 1 -147 -4z m247 -580 c176 -45 350 -190 459
-383 l46 -82 0 -152 0 -153 -127 0 -128 0 -33 65 c-66 126 -156 202 -277 232
-102 25 -180 10 -422 -81 -281 -105 -447 -148 -703 -180 -131 -17 -450 -39
-457 -32 -2 2 82 116 187 252 l191 249 107 16 c220 33 362 72 677 189 218 81
338 96 480 60z m1475 6 c41 -8 127 -33 190 -56 280 -103 342 -123 455 -151 66
-16 172 -37 237 -46 l116 -18 192 -249 c105 -136 190 -250 187 -252 -6 -7
-331 16 -457 32 -257 32 -423 75 -703 180 -242 91 -320 106 -422 81 -121 -30
-211 -106 -277 -232 l-33 -65 -127 0 -128 0 0 153 0 152 46 81 c25 45 74 114
109 154 181 205 374 279 615 236z m-1540 -689 c23 -12 54 -37 68 -55 l25 -32
-254 0 -254 1 105 41 c192 74 241 82 310 45z m1487 11 c26 -6 96 -31 157 -54
l111 -43 -254 -1 -254 0 25 32 c30 39 100 78 140 78 16 0 50 -5 75 -12z"/>
<path d="M4389 1241 c-53 -53 -33 -135 39 -162 76 -29 154 54 122 132 -26 62
-112 78 -161 30z"/>
</g>
</svg>
