<?xml version="1.0" standalone="no"?>
<!DOCTYPE svg PUBLIC "-//W3C//DTD SVG 20010904//EN"
 "http://www.w3.org/TR/2001/REC-SVG-20010904/DTD/svg10.dtd">
<svg version="1.0" xmlns="http://www.w3.org/2000/svg"
 width="204.000000pt" height="192.000000pt" viewBox="0 0 204.000000 192.000000"
 preserveAspectRatio="xMidYMid meet">

<g transform="translate(0.000000,192.000000) scale(0.100000,-0.100000)"
fill="#000000" stroke="none">
<path d="M654 1879 c-97 -58 -146 -100 -208 -177 -60 -74 -104 -156 -136 -253
-28 -82 -38 -255 -20 -357 15 -94 79 -224 157 -322 58 -72 243 -262 466 -478
l107 -103 0 -65 0 -64 305 0 c168 0 305 2 305 4 0 2 -39 83 -86 180 l-87 176
-94 0 -95 0 136 141 c294 304 357 421 357 669 0 119 -12 181 -55 286 -60 148
-168 274 -306 358 l-74 46 -301 0 -301 0 -70 -41z m399 -291 c9 -7 38 -51 65
-98 l48 -85 104 -22 c159 -33 168 -63 58 -178 l-71 -76 11 -105 c13 -117 8
-140 -34 -150 -19 -5 -52 5 -119 35 l-92 42 -88 -40 c-103 -48 -138 -51 -160
-17 -14 21 -15 37 -5 125 l12 101 -71 80 c-116 131 -96 165 111 195 46 7 47 8
93 89 26 44 54 89 63 99 18 20 51 22 75 5z"/>
</g>
</svg>
